<?xml version="1.0" encoding="utf-8"?>
<!-- Generator: Adobe Illustrator 19.2.0, SVG Export Plug-In . SVG Version: 6.00 Build 0)  -->
<svg version="1.1" xmlns="http://www.w3.org/2000/svg" xmlns:xlink="http://www.w3.org/1999/xlink" x="0px" y="0px"
	 viewBox="0 0 127.1 93" enable-background="new 0 0 127.1 93" xml:space="preserve">
<g id="Layer_1">
	<path fill="#00EAFC" d="M119.4,86H17.1c-6.6,0-9.3-17.8-2.3-26V26.7c-7-5,4.4-22.8,11-22.8l66.2,12.4c6.6,0,28.7,5,28.7,11.6
		l-16.7,33.7C103.9,68.2,126,86,119.4,86z"/>
	<g>
		<g>
			<linearGradient id="SVGID_1_" gradientUnits="userSpaceOnUse" x1="21.7053" y1="54.5334" x2="118.3688" y2="54.5334">
				<stop  offset="0" style="stop-color:#FFFFFF"/>
				<stop  offset="1" style="stop-color:#000000"/>
			</linearGradient>
			<path fill="url(#SVGID_1_)" d="M23.8,55V35.8c0-2.4,0.7-4.3,2.2-5.8c1.4-1.5,3.3-2.3,5.6-2.3c2.7,0,4.8,1.3,6.3,3.8
				c0.9-1.4,1.9-2.3,2.9-2.9c1-0.6,2.3-0.9,3.8-0.9c2.4,0,4.2,0.8,5.5,2.3c1.3,1.5,1.9,3.7,1.9,6.5V55h-7.9V37.7
				c0-0.9-0.1-1.4-0.2-1.7c-0.1-0.3-0.4-0.4-0.8-0.4c-0.8,0-1.2,0.7-1.2,2V55H34V37.7c0-0.8-0.1-1.4-0.2-1.7
				c-0.1-0.3-0.4-0.4-0.8-0.4c-0.8,0-1.2,0.7-1.2,2.1V55H23.8z"/>
			<linearGradient id="SVGID_2_" gradientUnits="userSpaceOnUse" x1="21.7053" y1="54.5334" x2="118.3688" y2="54.5334">
				<stop  offset="0" style="stop-color:#FFFFFF"/>
				<stop  offset="1" style="stop-color:#000000"/>
			</linearGradient>
			<path fill="url(#SVGID_2_)" d="M66.5,41.7v7h-2.3V55h-7.9v-17c0-3.3,0.9-5.8,2.7-7.6c1.8-1.8,4.3-2.7,7.5-2.7
				c3.1,0,5.4,0.8,6.9,2.5c1.5,1.6,2.2,4.2,2.2,7.6V55h-7.9V38.3c0-1-0.1-1.8-0.4-2.2c-0.2-0.4-0.7-0.6-1.3-0.6
				c-1.2,0-1.9,0.9-1.9,2.8v3.3H66.5z"/>
			<linearGradient id="SVGID_3_" gradientUnits="userSpaceOnUse" x1="21.7053" y1="54.5334" x2="118.3688" y2="54.5334">
				<stop  offset="0" style="stop-color:#FFFFFF"/>
				<stop  offset="1" style="stop-color:#000000"/>
			</linearGradient>
			<path fill="url(#SVGID_3_)" d="M89.2,45.8v-7c1.6,0,2.4-0.6,2.4-1.8c0-1.1-0.6-1.7-1.8-1.7c-1.2,0-1.9,0.8-1.9,2.3V55H80V38.4
				c0-1.7,0.2-3.1,0.5-4.2c0.3-1.1,0.9-2.1,1.8-3.1c0.9-1.1,2.1-1.9,3.5-2.5c1.4-0.6,2.9-0.9,4.4-0.9c2.7,0,5,0.9,6.8,2.7
				c1.8,1.8,2.8,4.1,2.8,6.8c0,2.6-0.8,4.7-2.5,6.4c-1.5,1.5-3.8,2.2-6.8,2.2L89.2,45.8z"/>
			<linearGradient id="SVGID_4_" gradientUnits="userSpaceOnUse" x1="21.7053" y1="54.5334" x2="118.3688" y2="54.5334">
				<stop  offset="0" style="stop-color:#FFFFFF"/>
				<stop  offset="1" style="stop-color:#000000"/>
			</linearGradient>
			<path fill="url(#SVGID_4_)" d="M32.7,66.7h-4.2L27.5,69h-1.6l4.8-10.4L35.4,69h-1.6L32.7,66.7z M32.1,65.3l-1.5-3.3l-1.5,3.3
				H32.1z"/>
			<linearGradient id="SVGID_5_" gradientUnits="userSpaceOnUse" x1="21.7053" y1="54.5334" x2="118.3688" y2="54.5334">
				<stop  offset="0" style="stop-color:#FFFFFF"/>
				<stop  offset="1" style="stop-color:#000000"/>
			</linearGradient>
			<path fill="url(#SVGID_5_)" d="M38.2,65.1v4h-1.5v-9.8h1.7c0.8,0,1.4,0.1,1.9,0.2c0.4,0.1,0.8,0.3,1.1,0.6
				c0.6,0.6,0.8,1.2,0.8,2.1c0,0.9-0.3,1.6-0.9,2.1s-1.4,0.8-2.4,0.8H38.2z M38.2,63.7h0.6c1.4,0,2-0.5,2-1.6c0-1-0.7-1.5-2.1-1.5
				h-0.5V63.7z"/>
			<linearGradient id="SVGID_6_" gradientUnits="userSpaceOnUse" x1="21.7053" y1="54.5334" x2="118.3688" y2="54.5334">
				<stop  offset="0" style="stop-color:#FFFFFF"/>
				<stop  offset="1" style="stop-color:#000000"/>
			</linearGradient>
			<path fill="url(#SVGID_6_)" d="M49.6,66.7h-4.2L44.3,69h-1.6l4.8-10.4L52.2,69h-1.6L49.6,66.7z M49,65.3l-1.5-3.3L46,65.3H49z"/>
			<linearGradient id="SVGID_7_" gradientUnits="userSpaceOnUse" x1="21.7053" y1="54.5334" x2="118.3688" y2="54.5334">
				<stop  offset="0" style="stop-color:#FFFFFF"/>
				<stop  offset="1" style="stop-color:#000000"/>
			</linearGradient>
			<path fill="url(#SVGID_7_)" d="M55,59.2v8.4h2.9V69h-4.4v-9.8H55z"/>
			<linearGradient id="SVGID_8_" gradientUnits="userSpaceOnUse" x1="21.7053" y1="54.5334" x2="118.3688" y2="54.5334">
				<stop  offset="0" style="stop-color:#FFFFFF"/>
				<stop  offset="1" style="stop-color:#000000"/>
			</linearGradient>
			<path fill="url(#SVGID_8_)" d="M58.9,64.1c0-1.4,0.5-2.6,1.5-3.6c1-1,2.2-1.5,3.6-1.5c1.4,0,2.6,0.5,3.6,1.5c1,1,1.5,2.2,1.5,3.6
				c0,1.4-0.5,2.6-1.5,3.6c-1,1-2.2,1.5-3.7,1.5c-1.3,0-2.4-0.4-3.4-1.3C59.5,66.9,58.9,65.7,58.9,64.1z M60.4,64.1
				c0,1.1,0.4,2,1.1,2.7c0.7,0.7,1.6,1,2.5,1c1,0,1.9-0.4,2.6-1.1c0.7-0.7,1.1-1.6,1.1-2.6c0-1-0.3-1.9-1-2.6
				c-0.7-0.7-1.6-1.1-2.6-1.1c-1,0-1.9,0.4-2.6,1.1C60.7,62.2,60.4,63.1,60.4,64.1z"/>
			<linearGradient id="SVGID_9_" gradientUnits="userSpaceOnUse" x1="21.7053" y1="54.5334" x2="118.3688" y2="54.5334">
				<stop  offset="0" style="stop-color:#FFFFFF"/>
				<stop  offset="1" style="stop-color:#000000"/>
			</linearGradient>
			<path fill="url(#SVGID_9_)" d="M70.6,64.1c0-1.4,0.5-2.6,1.5-3.6c1-1,2.2-1.5,3.6-1.5c1.4,0,2.6,0.5,3.6,1.5c1,1,1.5,2.2,1.5,3.6
				c0,1.4-0.5,2.6-1.5,3.6c-1,1-2.2,1.5-3.7,1.5c-1.3,0-2.4-0.4-3.4-1.3C71.2,66.9,70.6,65.7,70.6,64.1z M72.1,64.1
				c0,1.1,0.4,2,1.1,2.7c0.7,0.7,1.6,1,2.5,1c1,0,1.9-0.4,2.6-1.1c0.7-0.7,1.1-1.6,1.1-2.6c0-1-0.3-1.9-1-2.6
				c-0.7-0.7-1.6-1.1-2.6-1.1c-1,0-1.9,0.4-2.6,1.1C72.5,62.2,72.1,63.1,72.1,64.1z"/>
			<linearGradient id="SVGID_10_" gradientUnits="userSpaceOnUse" x1="21.7053" y1="54.5334" x2="118.3688" y2="54.5334">
				<stop  offset="0" style="stop-color:#FFFFFF"/>
				<stop  offset="1" style="stop-color:#000000"/>
			</linearGradient>
			<path fill="url(#SVGID_10_)" d="M84.5,67.6h4.7V69h-7.1l4.8-8.4h-4v-1.4h6.5L84.5,67.6z"/>
			<linearGradient id="SVGID_11_" gradientUnits="userSpaceOnUse" x1="21.7053" y1="54.5334" x2="118.3688" y2="54.5334">
				<stop  offset="0" style="stop-color:#FFFFFF"/>
				<stop  offset="1" style="stop-color:#000000"/>
			</linearGradient>
			<path fill="url(#SVGID_11_)" d="M96.8,66.7h-4.2L91.5,69h-1.6l4.8-10.4L99.4,69h-1.6L96.8,66.7z M96.2,65.3l-1.5-3.3l-1.5,3.3
				H96.2z"/>
			<linearGradient id="SVGID_12_" gradientUnits="userSpaceOnUse" x1="21.7053" y1="54.5334" x2="118.3688" y2="54.5334">
				<stop  offset="0" style="stop-color:#FFFFFF"/>
				<stop  offset="1" style="stop-color:#000000"/>
			</linearGradient>
			<path fill="url(#SVGID_12_)" d="M24.4,77.4V83h-1.6v-5.6h-0.7v-1.5h0.7v-2.6h1.6v2.6h1.3v1.5H24.4z"/>
		</g>
		<text transform="matrix(1 0 0 1 21.7055 55.0389)"><tspan x="0" y="0" fill="#CD00FF" font-family="'Bauhaus93'" font-size="40px">MAP</tspan><tspan x="0" y="14" fill="#FFFFFF" font-family="'Futura-Medium'" font-size="13px"> APALOOZA</tspan><tspan x="0" y="28" fill="#00EAFC" font-family="'Futura-Medium'" font-size="15px">t</tspan></text>
	</g>
</g>
<g id="Layer_2">
</g>
</svg>
