<?xml version="1.0" encoding="UTF-8" standalone="no"?>
<!-- Created with Inkscape (http://www.inkscape.org/) -->

<svg
   xmlns:dc="http://purl.org/dc/elements/1.1/"
   xmlns:cc="http://creativecommons.org/ns#"
   xmlns:rdf="http://www.w3.org/1999/02/22-rdf-syntax-ns#"
   xmlns:svg="http://www.w3.org/2000/svg"
   xmlns="http://www.w3.org/2000/svg"
   xmlns:sodipodi="http://sodipodi.sourceforge.net/DTD/sodipodi-0.dtd"
   xmlns:inkscape="http://www.inkscape.org/namespaces/inkscape"
   width="210mm"
   height="297mm"
   viewBox="0 0 744.09448819 1052.3622047"
   id="svg2"
   version="1.1"
   inkscape:version="0.91 r13725"
   sodipodi:docname="logo_mapApalooza.svg">
  <defs
     id="defs4" />
  <sodipodi:namedview
     id="base"
     pagecolor="#ffffff"
     bordercolor="#666666"
     borderopacity="1.0"
     inkscape:pageopacity="0.0"
     inkscape:pageshadow="2"
     inkscape:zoom="0.98994949"
     inkscape:cx="236.30533"
     inkscape:cy="633.04448"
     inkscape:document-units="px"
     inkscape:current-layer="layer1"
     showgrid="false"
     inkscape:window-width="1920"
     inkscape:window-height="1056"
     inkscape:window-x="0"
     inkscape:window-y="24"
     inkscape:window-maximized="1" />
  <metadata
     id="metadata7">
    <rdf:RDF>
      <cc:Work
         rdf:about="">
        <dc:format>image/svg+xml</dc:format>
        <dc:type
           rdf:resource="http://purl.org/dc/dcmitype/StillImage" />
        <dc:title></dc:title>
      </cc:Work>
    </rdf:RDF>
  </metadata>
  <g
     inkscape:label="Layer 1"
     inkscape:groupmode="layer"
     id="layer1">
    <ellipse
       style="fill:#0066ff;stroke:#d7e3f4"
       id="path3338"
       cx="379.64285"
       cy="631.08771"
       rx="222.5"
       ry="233.92857" />
    <path
       style="fill:none;fill-rule:evenodd;stroke:#000000;stroke-width:1px;stroke-linecap:butt;stroke-linejoin:miter;stroke-opacity:1"
       d="m 275,582.87344 c -2.67984,-0.87485 -5.12063,-0.71429 -7.85714,-0.71429 -1.68791,0 -2.73569,-0.31906 -4.28572,0.71429 -0.56033,0.37355 -0.95238,0.95238 -1.42857,1.42857 -0.71428,0.71429 -1.42857,1.42857 -2.14286,2.14286 -0.47619,0.47619 -0.88982,1.02451 -1.42857,1.42857 -1.0145,0.76088 -2.94472,0.88944 -3.57143,2.14286 -0.10647,0.21296 0.0753,0.48841 0,0.71428 -0.16835,0.50508 -0.47619,0.95238 -0.71428,1.42857 -0.47619,0.95239 -0.88074,1.94409 -1.42857,2.85715 -0.59584,0.99306 -1.19564,0.71816 -2.14286,1.42857 -0.53875,0.40406 -0.88982,1.02451 -1.42857,1.42857 -1.20534,0.904 -2.94275,1.04487 -4.28572,1.42857 -1.4479,0.41369 -2.88757,0.86932 -4.28571,1.42857 -3.1746,1.26984 0.0794,-0.0794 -2.14286,2.14286 -4.0058,4.0058 -0.82265,0.75041 -2.85714,1.42857 -5.17387,1.72462 1.12615,-0.20593 -2.14286,1.42857 -0.21296,0.10648 -0.48841,-0.0753 -0.71428,0 -1.01016,0.33672 -1.81303,1.21975 -2.85715,1.42857 -0.70041,0.14009 -1.43829,-0.11742 -2.14285,0 -1.18103,0.19684 -3.92732,1.42774 -5,2.14286 -0.28017,0.18678 -0.47619,0.47619 -0.71429,0.71429 -0.23809,0.23809 -0.5637,0.41311 -0.71428,0.71428 -0.10648,0.21296 0.0753,0.48841 0,0.71429 -0.16836,0.50507 -0.62676,0.90342 -0.71429,1.42857 -0.15657,0.93942 0.26164,1.94141 0,2.85714 -1.70735,5.97572 -0.78546,0.14235 -2.14286,2.85715 -0.10869,0.21738 0,1.82117 0,2.14285 0,1.42857 0,2.85715 0,4.28572 0,1.66666 0,3.33333 0,5 0,0.85959 -0.1609,2.05261 0,2.85714 0.14766,0.7383 0.53168,1.41241 0.71429,2.14286 0.0577,0.23098 -0.0753,0.48841 0,0.71428 0.16836,0.50508 0.51656,0.93426 0.71428,1.42857 0.27963,0.69908 0.43466,1.44379 0.71429,2.14286 0.19773,0.49432 0.58516,0.91207 0.71429,1.42857 0.11549,0.46198 0,0.95238 0,1.42857 0,1.73943 -0.1155,2.34957 0.71428,4.28572 0.46088,1.07538 1.82794,2.31176 2.14286,3.57143 0.11549,0.46197 -0.11549,0.9666 0,1.42857 0.12912,0.5165 0.33782,1.05211 0.71428,1.42857 0.16836,0.16836 0.48841,-0.0753 0.71429,0 0.50508,0.16836 0.93425,0.51656 1.42857,0.71429 0.69907,0.27962 1.46942,0.37756 2.14286,0.71428 0.76783,0.38392 1.40673,0.9869 2.14286,1.42857 0.91305,0.54784 2.0053,0.7897 2.85714,1.42857 0.53875,0.40407 0.82623,1.12741 1.42857,1.42858 1.55036,0.77518 3.44964,0.65339 5,1.42857 0.76783,0.38391 1.37502,1.04465 2.14286,1.42857 0.42592,0.21296 0.97681,-0.15059 1.42857,0 1.01015,0.33672 1.82414,1.17032 2.85714,1.42857 0.46197,0.11549 1.02024,-0.245 1.42857,0 0.8662,0.51972 1.35406,1.51182 2.14286,2.14286 0.41573,0.33258 0.95238,0.47619 1.42857,0.71428 1.90476,0.95238 3.86529,1.80057 5.71429,2.85715 1.5797,-0.0698 1.8666,1.4825 2.85714,2.14285 0.44298,0.29532 1.00265,0.39485 1.42857,0.71429 0.53875,0.40406 0.90271,1.00788 1.42857,1.42857 1.43658,1.14926 2.08777,1.40103 3.57143,2.14286 0.47619,0.23809 0.98559,0.41896 1.42857,0.71428 0.56033,0.37356 0.95238,0.95238 1.42857,1.42857 1.19048,1.19048 2.38096,2.38096 3.57143,3.57143 0.95238,0.95238 1.90477,1.90476 2.85715,2.85715 0.23809,0.23809 0.47619,0.47619 0.71428,0.71428 0.2381,0.2381 0.5637,0.41312 0.71429,0.71429 0.10648,0.21296 0,0.47619 0,0.71428 0,0.47619 0,0.95238 0,1.42857 0,0.2381 0,0.47619 0,0.71429 0,0.2381 0.23809,0.71429 0,0.71429 -0.2381,0 -0.2381,-0.71429 0,-0.71429 0.33671,0 0.41311,0.5637 0.71428,0.71429 0.21296,0.10648 0.47619,0 0.71429,0 1.19048,0 2.38095,0 3.57143,0 0.47619,0 0.9666,-0.1155 1.42857,0 0.5165,0.12912 0.90651,0.60987 1.42857,0.71428 0.93763,0.18753 3.15008,0 4.28571,0 2.85715,0 5.71429,0 8.57143,0 3.33334,0 6.66667,0 10,0 1.19048,0 2.38096,0 3.57143,0 0.95238,0 1.91434,0.13469 2.85714,0 1.49072,-0.21296 2.82483,-1.06335 4.28572,-1.42857 0.23099,-0.0578 0.47619,0 0.71428,0 0.2381,0 0.71429,-0.2381 0.71429,0 0,0.2381 -0.92724,0.10648 -0.71429,0 3.70898,-1.85449 0.78111,0.64746 3.57143,-2.14286 0.47619,-0.47619 1.05502,-0.86824 1.42857,-1.42857 0.2381,-0.35714 -0.47619,-1.30952 0.71429,-0.71428 1.57933,0.78966 0.22166,0.44331 0.71429,1.42857 0.30117,0.60234 1.21561,0.78969 1.42857,1.42857 0.13167,0.39501 0,3.56639 0,4.28571 0,3.57143 0,7.14286 0,10.71429 0,6.11662 0,15.71518 0,19.28571 0,1.90476 0,3.80953 0,5.71429 0,0.60475 0.128,2.47314 0,2.85714 -0.10648,0.31944 -0.5637,0.41312 -0.71429,0.71429 -0.10648,0.21296 0.0753,0.48841 0,0.71428 -0.16836,0.50508 -0.54593,0.9235 -0.71428,1.42857 -0.0753,0.22588 0,0.47619 0,0.71429 0,0.47619 0,0.95238 0,1.42857 0,0.47619 0.11549,0.9666 0,1.42857 -0.12913,0.5165 -0.54593,0.9235 -0.71429,1.42857 -0.12886,0.38658 0,2.61381 0,2.85715 0,2.61904 0,5.23809 0,7.85714 0,2.38095 0,4.7619 0,7.14286 0,0.71428 -0.17324,1.4499 0,2.14285 0.17072,0.68288 1.43033,2.50089 2.14286,2.85715 0.21296,0.10648 0.47619,0 0.71428,0 0.47619,0.23809 1.00266,0.39484 1.42857,0.71428 0.53875,0.40406 0.95239,0.95238 1.42858,1.42857 0.95238,0.95239 1.90476,1.90477 2.85714,2.85715 0.71428,0.71428 1.36684,1.49617 2.14286,2.14285 1.59301,1.32751 3.52127,2.09271 5,3.57143 0.23809,0.2381 0.5637,0.41312 0.71428,0.71429 0.10648,0.21296 0,0.47619 0,0.71428 0.2381,0.47619 0.41897,0.98559 0.71429,1.42858 0.31284,0.46926 2.01399,1.75625 2.14285,2.14285 0.15059,0.45176 -0.21295,1.00266 0,1.42857 0.30117,0.60234 1.05502,0.86824 1.42858,1.42858 0.13207,0.1981 -0.10648,0.50132 0,0.71428 0.15058,0.30117 0.5275,0.43412 0.71428,0.71429 0.29532,0.44298 0.39485,1.00265 0.71429,1.42857 0.80812,1.07749 2.01576,1.80541 2.85714,2.85714 0.53628,0.67035 0.89229,1.47251 1.42857,2.14286 1.82443,2.28054 4.53887,3.35215 6.42857,5.71428 0.33259,0.41574 0.47619,0.95239 0.71429,1.42858 0.23809,0.47619 0.54593,0.92349 0.71428,1.42857 0.31044,0.93131 0.3497,1.94566 0.71429,2.85714 0.12505,0.31263 0.5637,0.41312 0.71429,0.71429 0.10648,0.21295 0,0.47619 0,0.71428 0.23809,0.47619 0.39484,1.00266 0.71428,1.42857 0.22943,0.30591 2.64061,2.42407 2.85714,2.85715 0.10648,0.21295 -0.16835,0.54592 0,0.71428 3.49998,1.74999 0.59745,-0.23367 1.42858,1.42857 0.15058,0.30117 0.6078,0.39485 0.71428,0.71429 0.15059,0.45175 0,0.95238 0,1.42857 0,1.66667 0,3.33333 0,5 0,0.47619 0,0.95238 0,1.42857 0,0.47619 -0.11549,0.9666 0,1.42857 0.92725,3.70898 0.71429,-0.76253 0.71429,2.85715 0,1.19047 0,2.38095 0,3.57142 0,0.2381 0,0.47619 0,0.71429 0,0.2381 -0.10648,0.50133 0,0.71429 0.15058,0.30117 0.5637,0.41311 0.71428,0.71428 0.63222,1.26444 -1.06245,0.24408 0.71429,1.42857 1.54347,1.02898 2.5362,0.71429 4.28571,0.71429 0.39869,0 3.24446,0.10899 3.57143,0 0.31944,-0.10648 0.43412,-0.52751 0.71429,-0.71429 0.44298,-0.29532 1.00265,-0.39484 1.42857,-0.71428 0.53875,-0.40406 0.8511,-1.08209 1.42857,-1.42857 0.64563,-0.38738 1.46942,-0.37757 2.14286,-0.71429 0.60234,-0.30117 0.82623,-1.1274 1.42857,-1.42857 0.67343,-0.33672 1.46942,-0.37757 2.14286,-0.71429 0.81887,-0.40943 0.99357,-1.49036 1.42857,-2.14285 0.43348,-0.65023 1.82631,-1.50976 2.14285,-2.14286 0.33672,-0.67344 0.37757,-1.46942 0.71429,-2.14286 0.34339,-0.68677 2.66954,-2.29434 2.85714,-2.85714 0.15059,-0.45176 -0.11549,-0.9666 0,-1.42857 0.31863,-1.27453 1.27589,-1.99018 2.14286,-2.85715 0.2381,-0.23809 0.5637,-0.41311 0.71429,-0.71428 0.10648,-0.21296 -0.13208,-0.51618 0,-0.71429 2.18796,-3.28195 0.81599,0.61258 4.28571,-2.85714 0.35714,-0.35714 -0.17857,-1.60714 0,-2.14286 0.16836,-0.50507 0.54593,-0.92349 0.71429,-1.42857 0.60118,-1.80356 -1.45078,0.74389 0.71428,-2.14286 0.40406,-0.53874 0.95238,-0.95238 1.42857,-1.42857 0.47619,-0.47619 0.90271,-1.00788 1.42857,-1.42857 0.67035,-0.53628 1.47251,-0.89229 2.14286,-1.42857 0.52587,-0.42069 0.82623,-1.1274 1.42857,-1.42857 0.87806,-0.43903 1.95483,-0.32758 2.85715,-0.71429 0.78905,-0.33816 1.42857,-0.95238 2.14285,-1.42857 0.71429,-0.47619 1.45609,-0.91349 2.14286,-1.42857 0.26937,-0.20203 0.44491,-0.51226 0.71429,-0.71429 0.68677,-0.51507 1.53583,-0.82154 2.14285,-1.42857 0.16836,-0.16836 -0.0577,-0.4833 0,-0.71428 0.18261,-0.73045 0.37757,-1.46942 0.71429,-2.14286 0.15058,-0.30117 0.5637,-0.41312 0.71428,-0.71429 0.13017,-0.26034 0,-3.15985 0,-3.57142 0,-2.14286 0,-4.28572 0,-6.42858 0,-6.66666 0,-13.33333 0,-20 0,-1.42857 0,-2.85714 0,-4.28571 0,-0.71429 0,-1.42857 0,-2.14286 0,-0.47619 -0.11549,-0.9666 0,-1.42857 0.12913,-0.5165 0.54593,-0.92349 0.71429,-1.42857 0.0753,-0.22588 -0.0577,-0.4833 0,-0.71429 0.18261,-0.73044 0.47619,-1.42857 0.71429,-2.14285 0.23809,-0.71429 0.32691,-1.49723 0.71428,-2.14286 0.34648,-0.57747 1.02451,-0.88982 1.42857,-1.42857 0.31944,-0.42592 0.39485,-1.00266 0.71429,-1.42857 0.40406,-0.53875 0.95238,-0.95238 1.42857,-1.42857 0.47619,-0.47619 0.95238,-0.95239 1.42857,-1.42858 0.47619,-0.47619 0.88983,-1.02451 1.42857,-1.42857 4.06182,-3.04636 -1.51681,2.2311 2.85715,-2.14285 0.23809,-0.2381 0.6078,-0.39485 0.71428,-0.71429 0.22588,-0.67763 0,-1.42857 0,-2.14286 0,-1.66666 0,-3.33333 0,-5 0,-4.04762 0,-8.09524 0,-12.14285 0,-3.80953 0,-7.61905 0,-11.42858 0,-1.42857 0,-2.85714 0,-4.28571 0,-0.47619 0.0783,-0.95886 0,-1.42857 -0.16139,-0.96834 -0.52176,-1.89452 -0.71428,-2.85714 -0.14009,-0.70042 0,-1.42858 0,-2.14286 0,-1.90476 0,-3.80953 0,-5.71429 0,-0.47619 0.11549,-0.9666 0,-1.42857 -0.44302,-1.77208 -2.73299,-4.0374 -3.57143,-5.71428 -0.10648,-0.21296 0,-0.47619 0,-0.71429 0,-0.2381 0,-0.47619 0,-0.71429 0,-1.90476 0,-3.80952 0,-5.71428 0,-0.71429 0.26528,-1.47966 0,-2.14286 -0.25011,-0.62527 -1.17847,-0.8033 -1.42857,-1.42857 -0.0696,-0.17397 0,-3.73947 0,-4.28571 0,-1.42858 0,-2.85715 0,-4.28572 0,-0.47619 -0.15059,-0.97682 0,-1.42857 0.53214,-1.59643 1.97499,-3.03928 3.57142,-3.57143 1.07143,-0.35714 0.71429,0.71429 2.14286,0 0.42592,-0.21296 -0.33672,-1.09185 0,-1.42857 0.37646,-0.37646 1.05211,-0.33782 1.42857,-0.71429 0.60703,-0.60702 0.9135,-1.45608 1.42857,-2.14285 0.20204,-0.26938 0.56371,-0.41312 0.71429,-0.71429 0.33672,-0.67343 0.32691,-1.49723 0.71429,-2.14286 0.69296,-1.15493 2.01576,-1.80541 2.85714,-2.85714 4.33508,-5.41885 -1.02578,0.99534 2.14286,-4.28571 0.34648,-0.57747 1.02451,-0.88983 1.42857,-1.42857 0.31944,-0.42592 0.39485,-1.00266 0.71428,-1.42858 0.40406,-0.53874 1.05502,-0.86824 1.42857,-1.42857 0.13208,-0.1981 -0.0753,-0.48841 0,-0.71428 0.2381,-0.47619 0.4762,-0.95238 0.71429,-1.42857 0,-0.2381 -0.0753,-0.48841 0,-0.71429 0.16836,-0.50508 0.58516,-0.91207 0.71429,-1.42857 0.11549,-0.46197 0,-0.95238 0,-1.42857 0,-0.2381 -0.10648,-0.50133 0,-0.71429 0.15058,-0.30117 0.5637,-0.41311 0.71428,-0.71428 0.21296,-0.42592 -0.15058,-0.97682 0,-1.42858 0.16836,-0.50507 0.54593,-0.92349 0.71429,-1.42857 0.0753,-0.22587 -0.13207,-0.51618 0,-0.71428 1.5504,-2.32561 1.3287,-0.41469 2.14285,-2.85715 0.35715,-1.07142 -0.71428,-0.71428 0,-2.14285 0.30117,-0.60234 1.0821,-0.85111 1.42858,-1.42857 0.77475,-1.29126 0.75513,-2.93885 1.42857,-4.28572 0.15058,-0.30117 0.71428,-0.37757 0.71428,-0.71428 0,-0.2381 -0.47619,0 -0.71428,0 -0.47619,0 -0.95238,0 -1.42857,0 -1.66667,0 -3.33334,0 -5,0 -1.19048,0 -2.38096,0 -3.57143,0 -0.71429,0 -1.42857,0 -2.14286,0 -0.23809,0 -0.51618,-0.13208 -0.71429,0 -0.56033,0.37355 -0.88982,1.02451 -1.42857,1.42857 -0.85183,0.63887 -1.97118,0.83793 -2.85714,1.42857 -0.28017,0.18678 -0.40165,0.58923 -0.71429,0.71428 -1.96543,0.78618 -3.09614,0.71429 -5,0.71429 -0.71428,0 -1.44244,-0.14008 -2.14285,0 -0.52206,0.10441 -0.91207,0.58516 -1.42857,0.71429 -0.0517,0.0129 -3.55313,0.009 -3.57143,0 -0.96124,-0.48062 -2.42456,-2.85046 -2.85715,-3.57143 -0.27391,-0.45653 -0.39484,-1.00266 -0.71428,-1.42857 -0.40406,-0.53875 -1.02451,-0.88983 -1.42857,-1.42858 -0.31944,-0.42591 -0.33783,-1.05211 -0.71429,-1.42857 -0.86999,-0.86999 -1.59586,-0.33458 -2.14286,-1.42857 -0.10647,-0.21296 0.0753,-0.48841 0,-0.71428 -1.72462,-5.17387 0.20594,1.12614 -1.42857,-2.14286 -0.20924,-0.41848 0.13159,-3.04507 0,-3.57143 -0.25825,-1.033 -1.21974,-1.81303 -1.42857,-2.85714 -0.23347,-1.16736 0,-2.38096 0,-3.57143 0,-0.47619 0.15059,-0.97682 0,-1.42857 -0.10648,-0.31944 -0.5637,-0.41312 -0.71428,-0.71429 -0.10648,-0.21296 0,-0.47619 0,-0.71428 0,-0.69205 0.14197,-3.85981 0,-4.28572 -0.16836,-0.50507 -0.54593,-0.92349 -0.71429,-1.42857 -0.15058,-0.45175 0,-0.95238 0,-1.42857 0,-1.66667 0,-3.33333 0,-5 0,-0.95238 0,-1.90476 0,-2.85714 0,-0.2381 0,-0.47619 0,-0.71429 0,-0.2381 -0.23809,-0.71429 0,-0.71429 0.2381,0 0,0.95239 0,0.71429 0,-0.47619 0.21296,-1.00265 0,-1.42857 -0.10648,-0.21296 -0.47619,0 -0.71429,0 -0.47619,0 -0.95238,0 -1.42857,0 -1.42857,0 -2.85714,0 -4.28571,0 -1.19048,0 -2.39715,-0.19571 -3.57143,0 -0.74268,0.12378 -1.40018,0.5905 -2.14286,0.71428 -0.70456,0.11743 -1.42857,0 -2.14285,0 -1.90477,0 -3.80953,0 -5.71429,0 -0.71429,0 -1.43575,-0.10101 -2.14286,0 -0.97182,0.13884 -1.89451,0.52176 -2.85714,0.71429 -0.23347,0.0467 -0.47619,0 -0.71429,0 -1.19047,0 -2.38095,0 -3.57142,0 -0.71429,0 -1.46523,0.22588 -2.14286,0 -2.90443,-0.96814 -1.56136,-1.12943 -2.85714,-2.85714 -0.40406,-0.53875 -1.02451,-0.88983 -1.42858,-1.42857 -0.76641,-1.02189 -0.94839,-2.45102 -1.42857,-3.57143 -0.41944,-0.9787 -0.90028,-1.93265 -1.42857,-2.85715 -2.53968,-4.44444 -0.0794,-0.0794 -3.57143,-3.57142 -0.16836,-0.16836 0.0753,-0.48841 0,-0.71429 -0.16836,-0.50508 -0.47619,-0.95238 -0.71428,-1.42857 -0.87701,-1.75403 -1.66717,-3.41337 -2.85715,-5 -0.20203,-0.26938 -0.47619,-0.47619 -0.71428,-0.71429 -1.32875,-1.32874 -1.7693,-1.95608 -3.57143,-2.85714 -0.21296,-0.10648 -0.50133,0.10648 -0.71429,0 -0.76783,-0.38392 -1.40673,-0.9869 -2.14285,-1.42857 -0.45653,-0.27392 -1.01284,-0.3817 -1.42857,-0.71429 -0.7888,-0.63103 -1.33474,-1.53676 -2.14286,-2.14285 -0.15547,-0.1166 -3.2276,0 -3.57143,0 -2.38095,0 -4.7619,0 -7.14286,0 -5.95238,0 -11.90476,0 -17.85714,0 -1.66667,0 -3.33333,0 -5,0 -0.47619,0 -0.95238,0 -1.42857,0 -0.47619,0 -0.9666,-0.1155 -1.42857,0 -1.15316,0.28829 -1.41677,0.70248 -2.14286,1.42857 -0.23809,0.23809 -0.39485,0.6078 -0.71429,0.71428 -0.45175,0.15059 -0.95238,0 -1.42857,0 -0.23809,0 -0.71428,0.2381 -0.71428,0 0,-0.23809 0.95238,0 0.71428,0 -1.42857,0 -2.85714,0 -4.28571,0 -2.14286,0 -4.28572,0 -6.42857,0 -1.19048,0 -2.38686,0.11846 -3.57143,0 -1.20803,-0.1208 -2.36958,-0.54259 -3.57143,-0.71428 -0.4714,-0.0673 -1.00265,0.21296 -1.42857,0 -0.60234,-0.30117 -0.88982,-1.02451 -1.42857,-1.42857 -0.42592,-0.31944 -0.97205,-0.44037 -1.42857,-0.71429 -0.73613,-0.44168 -1.37503,-1.04465 -2.14286,-1.42857 -0.21296,-0.10648 -0.47619,0 -0.71429,0 -0.23809,0 -0.47619,0 -0.71428,0 -1.19048,0 -2.38095,0 -3.57143,0 -1.90476,0 -3.80952,0 -5.71429,0 -0.47619,0 -0.9666,-0.11549 -1.42857,0 -1.72762,0.4319 -1.6522,1.33956 -2.85714,2.14286 -0.44298,0.29532 -1.00265,0.39484 -1.42857,0.71428 -0.22642,0.16981 -3.27374,3.12489 -3.57143,3.57143 -0.29532,0.44298 -0.54593,0.9235 -0.71429,1.42857 -0.0753,0.22588 0,0.47619 0,0.71429 0,1.19047 0,2.38095 0,3.57143 0,0.47619 0.15059,0.97681 0,1.42857 -0.21296,0.63887 -1.1274,0.82623 -1.42857,1.42857 -0.0382,0.0764 -0.13026,3.89492 0,4.28571 0.16836,0.50508 0.58516,0.91207 0.71429,1.42857 0.11549,0.46198 0,0.95239 0,1.42858 0.23809,0.47619 0.54592,0.92349 0.71428,1.42857 0.0753,0.22587 -0.10648,0.50132 0,0.71428 0.30117,0.60234 1.21562,0.7897 1.42857,1.42857 0.15059,0.45176 -0.21295,1.00266 0,1.42858 0.35144,0.70287 2.50571,2.15426 2.85715,2.85714 0.10648,0.21296 -0.0753,0.48841 0,0.71428 0.16836,0.50508 0.54592,0.9235 0.71428,1.42858 0.0753,0.22587 -0.10648,0.50132 0,0.71428 0.15059,0.30117 0.5637,0.41312 0.71429,0.71429 0.0923,0.18468 0,3.77942 0,4.28571 0,0.2381 -0.0884,0.49322 0,0.71429 0.39545,0.98863 0.95238,1.90476 1.42857,2.85714 z"
       id="path3344"
       inkscape:connector-curvature="0" />
    <path
       style="fill:none;fill-rule:evenodd;stroke:#000000;stroke-width:1px;stroke-linecap:butt;stroke-linejoin:miter;stroke-opacity:1"
       d="m 595,568.58773 c -0.71429,-0.47619 -1.37502,-1.04466 -2.14286,-1.42858 -0.30117,-0.15058 0.47619,0.95239 0.71429,0.71429 0.23809,-0.2381 -0.47619,-0.47619 -0.71429,-0.71429 -0.23809,-0.23809 -0.41311,-0.5637 -0.71428,-0.71428 -0.21296,-0.10648 -0.50133,0.10648 -0.71429,0 -3.269,-1.6345 3.03101,0.29605 -2.14286,-1.42857 -0.24841,-0.0828 -3.3892,-0.0456 -3.57142,0 -0.5165,0.12912 -0.89618,0.71428 -1.42858,0.71428 -0.33671,0 0.95239,-0.47619 0.71429,-0.71428 -0.23809,-0.2381 -0.47619,0.47619 -0.71429,0.71428 -0.23809,0.2381 -0.5637,0.41312 -0.71428,0.71429 -0.21296,0.42592 0.42592,1.21561 0,1.42857 -0.42592,0.21296 -0.95238,0 -1.42857,0 -0.47619,0 -0.95238,0 -1.42857,0 -2.14286,0 -4.28572,0 -6.42858,0 -0.71428,0 -1.42857,0 -2.14285,0 -0.2381,0 -0.50133,0.10648 -0.71429,0 -1.44463,-0.72231 -0.22905,-1.65762 -0.71428,-2.14286 -0.37647,-0.37646 -0.98559,-0.41896 -1.42858,-0.71428 -0.28016,-0.18678 -0.39484,-0.60781 -0.71428,-0.71429 -0.45175,-0.15058 -0.95238,0 -1.42857,0 -0.47619,0 -0.95238,0 -1.42857,0 -0.2381,0 0.50132,0.10648 0.71428,0 0.30117,-0.15058 0.95238,-0.95238 0.71429,-0.71428 -0.0214,0.0214 -2.56864,2.71288 -2.85715,2.85714 -0.21295,0.10648 -0.4884,-0.0753 -0.71428,0 -0.50508,0.16836 -0.95238,0.47619 -1.42857,0.71428 -0.95238,0.47619 -1.94409,0.88074 -2.85715,1.42858 -0.73612,0.44167 -1.37502,1.04465 -2.14285,1.42857 -5.4293,2.71465 -0.4221,0.10552 -2.85715,0.71428 -0.73044,0.18261 -1.41241,0.53168 -2.14285,0.71429 -0.46197,0.11549 -0.9666,-0.11549 -1.42857,0 -0.73045,0.18261 -1.41242,0.53167 -2.14286,0.71428 -0.23099,0.0577 -0.50133,-0.10648 -0.71429,0 -0.81887,0.40944 -0.99357,1.49037 -1.42857,2.14286 -0.37355,0.56033 -1.05501,0.86824 -1.42857,1.42857 -2.40562,3.60844 -0.006,0.0166 -0.71429,2.14286 -0.16835,0.50508 -0.58516,0.91207 -0.71428,1.42857 -0.11549,0.46197 0,0.95238 0,1.42857 0,0.71429 0,1.42857 0,2.14286 0,0.58479 -0.15427,3.10863 0,3.57143 0.16836,0.50507 0.47619,0.95238 0.71428,1.42857 0.2381,0.47619 0.33783,1.05211 0.71429,1.42857 0.60703,0.60703 1.40673,0.9869 2.14286,1.42857 0.45652,0.27392 1.05211,0.33783 1.42857,0.71429 1.2738,1.2738 0.39219,1.96097 0.71428,3.57143 0.57488,2.87437 0.52124,0.32818 1.42858,2.14285 0.56247,1.12495 -0.92617,0.71429 -1.42858,0.71429 -2.46595,0 2.66991,-0.0753 -2.85714,0.71429 -0.94281,0.13468 -1.90476,0 -2.85714,0 -0.71429,0 -1.42857,0 -2.14286,0 -4.99562,0 -3.11961,-0.35371 -10,2.85714 -1.25807,0.5871 -2.24166,1.74392 -3.57143,2.14286 -1.14027,0.34208 -2.39291,-0.16836 -3.57143,0 -0.71433,0.10204 -3.37536,2.02521 -3.57142,2.14285 -0.96381,0.57829 -1.53653,0.51908 -2.14286,1.42857 -0.29532,0.44299 -0.47619,0.95239 -0.71429,1.42858 0,0.23809 0.10648,0.50132 0,0.71428 -1.6345,3.26901 0.29605,-3.03101 -1.42857,2.14286 -0.15058,0.45175 0.21296,1.00265 0,1.42857 -0.38392,0.76783 -1.10974,1.34579 -1.42857,2.14286 -0.17685,0.44213 0,0.95238 0,1.42857 0,0.47619 0,0.95238 0,1.42857 0,2.10201 -0.33672,1.09185 1.42857,2.85714 0.2381,0.2381 0.37757,0.71429 0.71429,0.71429 0.88264,0 0.71428,-1.00169 0.71428,-1.42857 0,-0.95238 0,-1.90476 0,-2.85715 0,-0.47619 0.15059,-0.97681 0,-1.42857 -0.16836,-0.50507 -0.58516,-0.91207 -0.71428,-1.42857 -0.44729,-1.78917 0.44729,-1.06797 0,-2.85714 -0.25825,-1.033 -1.17032,-1.82414 -1.42857,-2.85714 -0.37721,-1.50883 0.63468,-1.50817 -0.71429,-2.85715 -1.21405,-1.21405 -3.07166,-1.64309 -4.28571,-2.85714 -0.60703,-0.60703 -0.9296,-1.4443 -1.42858,-2.14286 -0.69195,-0.96873 -1.61046,-1.79235 -2.14285,-2.85714 -0.43903,-0.87805 -0.40385,-1.92583 -0.71429,-2.85714 -0.5,-1.5 -1.64286,-2.78572 -2.14286,-4.28572 -0.0753,-0.22587 0.10648,-0.50132 0,-0.71428 -0.15058,-0.30117 -0.5637,-0.41312 -0.71428,-0.71429 -0.10648,-0.21296 0.16836,-0.54593 0,-0.71428 -1.90476,-1.90477 -1.19048,0.71428 -2.14286,-2.14286 -0.15058,-0.45176 0.21296,-1.00266 0,-1.42857 -0.15058,-0.30117 -0.47619,-0.47619 -0.71428,-0.71429 -0.2381,-1.19047 -0.47619,-2.38095 -0.71429,-3.57143 -0.0783,-0.46971 0.21296,-1.00265 0,-1.42857 -0.18576,-0.37152 -2.79584,-2.80814 -2.85714,-2.85714 -0.67035,-0.53628 -1.45609,-0.91349 -2.14286,-1.42857 -2.19821,-1.64866 -3.08532,-4.5139 -5,-6.42857 -0.60703,-0.60703 -1.53583,-0.82155 -2.14286,-1.42858 -0.37646,-0.37646 -0.41896,-0.98559 -0.71428,-1.42857 -0.56033,-0.84049 -1.53677,-1.33473 -2.14286,-2.14285 -0.31944,-0.42592 -0.47619,-0.95239 -0.71429,-1.42858 -0.23809,-0.47619 -0.54592,-0.92349 -0.71428,-1.42857 -0.0753,-0.22587 0.10648,-0.50132 0,-0.71428 -0.15059,-0.30117 -0.47619,-0.47619 -0.71429,-0.71429 -2.74245,-2.74245 0.0328,-0.15395 -3.57143,-2.85714 -0.91195,-0.68397 -2.09597,-2.09597 -2.85714,-2.85714 -0.47619,-0.47619 -0.86824,-1.05502 -1.42857,-1.42858 -0.19811,-0.13207 -0.47619,0 -0.71429,0 -0.23809,0 -0.47619,0 -0.71428,0 -0.71429,0 -1.42857,0 -2.14286,0 -2.38095,0 -4.7619,0 -7.14286,0 -2.14285,0 -4.28571,0 -6.42857,0 -0.39909,0 -3.14991,0.14051 -3.57143,0 -0.50507,-0.16835 -0.98559,-0.41896 -1.42857,-0.71428 -0.56033,-0.37356 -0.82623,-1.1274 -1.42857,-1.42857 -0.21296,-0.10648 -0.50132,0.10648 -0.71428,0 -0.30117,-0.15059 -0.39485,-0.60781 -0.71429,-0.71429 -1.95098,-0.65033 -0.96055,0.12313 -2.14286,0.71429 -0.21296,0.10648 -0.71428,-0.2381 -0.71428,0 0,0.23809 0.51618,-0.13207 0.71428,0 4.1415,2.761 0.52893,0.34357 1.42857,2.14285 0.38392,0.76784 1.00266,1.39751 1.42858,2.14286 0.52828,0.9245 0.95238,1.90476 1.42857,2.85714 0.47619,0.95239 0.83793,1.97118 1.42857,2.85715 0.49963,0.74945 2.54699,2.6864 3.57143,2.85714 0.93942,0.15657 1.90476,0 2.85714,0 0.47619,0 -1.42857,-0.47619 -1.42857,0 0,0.47619 0.97682,0.15058 1.42857,0 0.31944,-0.10648 0.39485,-0.60781 0.71429,-0.71429 0.384,-0.128 2.25239,0 2.85714,0 2.14286,0 4.28571,0 6.42857,0 0.84088,0 4.75799,-0.121 5,0 0.30117,0.15059 0.5637,0.41312 0.71429,0.71429 0.1179,0.2358 0.0205,3.53053 0,3.57143 -0.15059,0.30117 -0.60781,0.39485 -0.71429,0.71428 -0.31677,0.95032 0.25404,2.55527 0,3.57143 -0.18261,0.73045 -0.53167,1.41242 -0.71429,2.14286 -0.0577,0.23099 0.0577,0.4833 0,0.71429 -0.18261,0.73044 -0.53167,1.41241 -0.71428,2.14285 -0.11549,0.46198 0,0.95238 0,1.42857 0,0.95239 0,1.90477 0,2.85715 0,2.85714 0,5.71428 0,8.57143 0,3.57142 0,7.14285 0,10.71428 0,1.66667 0,3.33333 0,5 0,0.2381 0,0.47619 0,0.71429 0,0.23809 0.10648,0.50132 0,0.71428 -0.15059,0.30117 -0.47619,0.47619 -0.71429,0.71429 -0.23809,0.23809 -0.43412,0.52751 -0.71428,0.71428 -0.44298,0.29533 -0.9235,0.54593 -1.42857,0.71429 -0.22588,0.0753 -0.47619,0 -0.71429,0 -0.47619,0 -1.03236,0.26414 -1.42857,0 -0.44298,-0.29532 -0.41897,-0.98559 -0.71429,-1.42857 -0.18677,-0.28017 -0.5637,-0.41312 -0.71428,-0.71429 -0.10648,-0.21296 0,-0.47619 0,-0.71428 -0.2381,-0.47619 -0.47619,-0.95238 -0.71429,-1.42857 -0.40406,-0.53875 -1.02451,-0.88983 -1.42857,-1.42858 -0.31944,-0.42591 -0.39485,-1.00265 -0.71429,-1.42857 -0.40406,-0.53875 -1.1274,-0.82623 -1.42857,-1.42857 -0.21296,-0.42592 0.1155,-0.9666 0,-1.42857 -0.12912,-0.5165 -0.54592,-0.9235 -0.71428,-1.42857 -0.15059,-0.45176 0.21296,-1.00266 0,-1.42857 -0.32824,-0.65647 -2.67648,-2.31515 -2.85715,-2.85715 -0.44082,-1.32246 0.98304,-2.85714 -1.42857,-2.85714 -3.25163,0 -0.0409,-0.33672 -2.14285,0.71429 -0.21296,0.10648 -0.50133,-0.10648 -0.71429,0 -1.08751,0.54375 -0.41823,1.42857 -2.14286,1.42857 -0.33671,0 0.95238,-0.47619 0.71429,-0.71429 -0.2381,-0.23809 -0.5637,0.41312 -0.71429,0.71429 -0.33671,0.67343 -0.37756,1.46942 -0.71428,2.14286 -0.15059,0.30116 -0.47619,0.47619 -0.71429,0.71428 -0.47619,0.47619 -1.05501,0.86824 -1.42857,1.42857 -0.26414,0.39622 0.21296,1.00266 0,1.42857 -0.15058,0.30117 -0.47619,0.47619 -0.71429,0.71429 -0.23809,0.2381 -0.39484,0.60781 -0.71428,0.71429 -0.67763,0.22587 -1.42857,0 -2.14286,0 -2.14286,0 -4.28571,0 -6.42857,0 -2.14286,0 -4.28571,0 -6.42857,0 -0.47619,0 -1.00265,0.21295 -1.42857,0 -0.60234,-0.30117 -0.95238,-0.95239 -1.42857,-1.42858 -0.2381,-0.23809 0.47619,0.95239 0.71428,0.71429 0.2381,-0.2381 -0.47619,-0.47619 -0.71428,-0.71429 -0.2381,-0.23809 -0.41312,-0.5637 -0.71429,-0.71428 -0.21296,-0.10648 -0.50133,0.10648 -0.71429,0 -0.63309,-0.31655 -1.49263,-1.70938 -2.14285,-2.14286 -0.44298,-0.29532 -0.98559,-0.41896 -1.42857,-0.71428 -0.75339,-0.50226 -1.97544,-2.52231 -2.14286,-2.85715 -0.10648,-0.21296 0.10648,-0.50132 0,-0.71428 -0.30117,-0.60234 -1.1274,-0.82624 -1.42857,-1.42857 -0.21281,-0.42562 0.16591,-2.90776 0,-3.57143 -0.18261,-0.73045 -0.56663,-1.40456 -0.71429,-2.14286 -0.0934,-0.46694 0,-0.95238 0,-1.42857 0,-0.2381 0.10648,-0.50133 0,-0.71429 -0.15058,-0.30117 -0.5637,-0.41311 -0.71428,-0.71428 -0.10648,-0.21296 0.13207,-0.51618 0,-0.71429 -0.0984,-0.14759 -3.17776,-3.33522 -3.57143,-3.57143 -6.45772,-3.87463 1.34423,2.07258 -7.14286,-5 -0.47619,-0.95238 -0.83793,-1.97118 -1.42857,-2.85714 -1.06766,-1.60148 -3.69557,-2.39114 -4.28572,-3.57143 -0.33671,-0.67343 -0.37756,-1.46942 -0.71428,-2.14286 -0.38392,-0.76783 -1.04466,-1.37502 -1.42857,-2.14285 -0.10648,-0.21296 0,-0.47619 0,-0.71429 0,-0.47619 0.11549,-0.9666 0,-1.42857 -0.55278,-2.21112 -0.92307,-0.82416 -2.14286,-2.85714 -0.88175,-1.46959 -0.71429,-2.71794 -0.71429,-4.28572 0,-0.23809 0,-0.47619 0,-0.71428 0,-0.2381 0.10648,-0.50133 0,-0.71429 -0.15058,-0.30117 -0.6078,-0.39485 -0.71428,-0.71428 -1.6345,-4.90351 2.73496,3.32706 -0.71429,-3.57143 -0.62087,-1.24176 -1.48465,-2.34905 -2.14285,-3.57143 -1.00964,-1.87504 -1.81309,-3.85819 -2.85715,-5.71429 -1.10121,-1.95772 -2.67111,-3.65642 -3.57143,-5.71428 -1.54743,-3.537 -1.52401,-7.71552 -2.14285,-11.42857 -0.16139,-0.96834 -0.52176,-1.89452 -0.71429,-2.85715 -0.0467,-0.23347 0.0753,-0.48841 0,-0.71428 -0.96736,-2.9021 -0.39865,0.0499 -2.14286,-2.85715 -0.38737,-0.64562 -0.29663,-1.51638 -0.71428,-2.14285 -0.56033,-0.8405 -1.51182,-1.35406 -2.14286,-2.14286 -0.33258,-0.41573 -0.39485,-1.00265 -0.71428,-1.42857 -0.40406,-0.53875 -1.02451,-0.88982 -1.42858,-1.42857 -0.71791,-0.95722 -1.01698,-2.54248 -1.42857,-3.57143 -0.57248,-1.4312 -1.12376,-1.83805 -2.14285,-2.85714 -0.2381,-0.2381 -0.38763,-0.63262 -0.71429,-0.71429 -0.69296,-0.17324 -1.42857,0 -2.14286,0 -1.42857,0 -2.85714,0 -4.28571,0 -1.19048,0 -2.38095,0 -3.57143,0 -0.47619,0 -1.00265,-0.21296 -1.42857,0 -0.21296,0.10648 0.16836,0.54593 0,0.71429 -0.37646,0.37646 -1.05211,0.33782 -1.42857,0.71428 -0.37646,0.37646 -0.41897,0.98559 -0.71429,1.42857 -0.66036,0.99054 -1.45091,1.88842 -2.14286,2.85715 -0.49897,0.69856 -0.89229,1.4725 -1.42857,2.14285 -0.42069,0.52587 -1.02451,0.88983 -1.42857,1.42857 -0.31944,0.42592 -0.39485,1.00266 -0.71428,1.42858 -0.40406,0.53874 -0.95238,0.95238 -1.42858,1.42857 -0.23809,0.23809 -0.41311,0.5637 -0.71428,0.71428 -0.67344,0.33672 -1.46942,0.37757 -2.14286,0.71429 -0.30117,0.15058 -0.41311,0.5637 -0.71428,0.71428 -0.21296,0.10648 -0.71429,0.2381 -0.71429,0 0,-0.23809 0.95238,0 0.71429,0 -0.71429,0 -1.42858,0 -2.14286,0 -0.47619,0 -0.96163,-0.0934 -1.42857,0 -4.70082,0.94017 0.3939,0.71429 -4.28572,0.71429 -0.23809,0 -0.50132,0.10648 -0.71428,0 -2.98315,-1.49157 -3.14386,-3.23943 -5,-5.71429 -1.0257,-1.36759 -1.83145,-0.77525 -2.85715,-2.14285 -0.28571,-0.38096 0.0934,-0.96163 0,-1.42857 -0.14766,-0.73831 -0.37756,-1.46943 -0.71428,-2.14286 -0.15059,-0.30117 -0.47619,-0.47619 -0.71429,-0.71429 -0.90841,-0.90841 -0.85199,-0.7014 -1.42857,-2.14285 -0.27963,-0.69908 -0.53167,-1.41242 -0.71428,-2.14286 -0.0577,-0.23099 0.21295,-0.60781 0,-0.71429 -0.42592,-0.21296 -0.95886,0.0783 -1.42858,0 -0.96833,-0.16139 -1.91685,-0.4322 -2.85714,-0.71428 -1.44234,-0.4327 -2.85714,-0.95238 -4.28571,-1.42857 -0.71429,-0.2381 -1.40456,-0.56663 -2.14286,-0.71429 -0.46694,-0.0934 -0.95238,0 -1.42857,0 -1.42857,0 -2.85714,0 -4.28572,0 -0.39868,0 -3.24445,-0.10899 -3.57142,0 -0.31944,0.10648 -0.43412,0.52751 -0.71429,0.71429 -0.44298,0.29532 -0.98559,0.41896 -1.42857,0.71428 -0.88321,0.58881 -0.54536,0.83977 -1.42857,1.42857 -0.44298,0.29532 -0.98559,0.41897 -1.42857,0.71429 -0.28017,0.18678 -0.39485,0.6078 -0.71429,0.71428 -0.45175,0.15059 -0.97682,-0.15058 -1.42857,0 -0.31944,0.10648 -0.41312,0.56371 -0.71429,0.71429 -0.21296,0.10648 -0.4833,-0.0578 -0.71428,0 -2.18871,0.54718 -1.73281,0.30424 -2.85715,1.42857 -0.23809,0.2381 -0.5275,0.43412 -0.71428,0.71429 -0.54422,0.81632 -1.26263,2.74172 -1.42857,3.57143 -0.0934,0.46694 0.11549,0.96659 0,1.42857 -0.45749,1.82994 -1.68222,2.00485 -2.85715,3.57143 -0.14285,0.19047 0.16836,0.54592 0,0.71428 -0.37646,0.37646 -1.05211,0.33783 -1.42857,0.71429 -0.16836,0.16836 0,0.47619 0,0.71428 0,1.42857 0,2.85715 0,4.28572 0,0.47619 0.47619,1.42857 0,1.42857 -0.67343,0 -1.90476,-0.95238 -1.42857,-1.42857 0.47619,-0.47619 1.42857,2.102 1.42857,1.42857 0,-0.85847 -0.98689,-1.40673 -1.42857,-2.14286 -0.27391,-0.45653 -0.47619,-0.95238 -0.71428,-1.42857 -0.2381,-0.47619 -0.58516,-0.91207 -0.71429,-1.42857 -0.81725,-3.26901 1.44277,0.74269 -0.71429,-3.57143 -0.38391,-0.76783 -1.04465,-1.37502 -1.42857,-2.14286 -0.10648,-0.21296 0,-0.47619 0,-0.71428 0,-0.71429 0.17324,-1.4499 0,-2.14286 -0.31097,-1.2439 -1.11759,-2.32753 -1.42857,-3.57143 -0.17324,-0.69296 0,-1.42857 0,-2.14286 0,-0.47619 0.17685,-0.98644 0,-1.42857 -0.53845,-1.34612 -1.24394,-1.95822 -2.14286,-2.85714 -0.47619,-0.47619 -1.05501,-0.86824 -1.42857,-1.42857 -0.23059,-0.34589 0.20679,-3.05445 0,-3.57143 0.396,-1.76903 -1.61046,-1.79235 -2.14285,-2.85714 -0.33672,-0.67344 -0.56663,-1.40456 -0.71429,-2.14286 -0.18678,-0.93389 0,-1.90476 0,-2.85714 0,-1.42857 0,-2.85715 0,-4.28572 0,-1.42857 0,-2.85714 0,-4.28571 0,-0.47619 -0.11549,-0.9666 0,-1.42857 0.57888,-2.31551 0.49348,-1.01623 2.14286,-1.42857 0.5165,-0.12913 0.95238,-0.47619 1.42857,-0.71429 0.47619,-0.2381 0.98559,-0.41897 1.42857,-0.71429 0.28017,-0.18677 0.39485,-0.6078 0.71429,-0.71428 0.45175,-0.15059 0.96659,0.11549 1.42857,0 0.5165,-0.12913 0.92349,-0.54593 1.42857,-0.71429 0.22588,-0.0753 0.50133,0.10648 0.71428,0 0.30117,-0.15058 0.4762,-0.47619 0.71429,-0.71428 0.47619,-0.47619 0.90271,-1.00788 1.42857,-1.42857 0.24041,-0.19233 2.8296,-1.9945 3.57143,-2.14286 0.70042,-0.14008 1.42857,0 2.14286,0 1.19047,0 2.38095,0 3.57143,0 0.71428,0 1.43575,0.10101 2.14285,0 0.97183,-0.13883 1.90477,-0.47619 2.85715,-0.71429 0.95238,-0.23809 1.89451,-0.52176 2.85714,-0.71428 0.23347,-0.0467 0.71428,-0.2381 0.71428,0 0,0.23809 -0.47619,0 -0.71428,0 0.71428,0 1.4499,-0.17324 2.14286,0 0.32666,0.0817 0.47619,0.47619 0.71428,0.71428 0.2381,0.2381 0.47619,0.47619 0.71429,0.71429 1.32874,1.32874 1.95608,1.7693 2.85714,3.57143 0.57341,1.14682 0.85516,2.42461 1.42857,3.57143 0.38392,0.76783 1.04466,1.37502 1.42857,2.14285 0.10648,0.21296 -0.0753,0.48841 0,0.71429 0.16836,0.50507 0.41897,0.98559 0.71429,1.42857 0.18678,0.28017 0.47619,0.47619 0.71428,0.71429 0.2381,0.23809 0.38763,0.63262 0.71429,0.71428 0.69296,0.17324 1.42857,0 2.14286,0 1.19047,0 2.38095,0 3.57143,0 1.42857,0 2.85714,0 4.28571,0 0.95238,0 1.92326,0.18678 2.85714,0 0.33018,-0.066 0.43412,-0.52751 0.71429,-0.71428 0.44298,-0.29533 0.92349,-0.54593 1.42857,-0.71429 1.51311,-0.50437 5.01326,-1.14551 6.42857,-1.42857 1.19048,-0.2381 2.41968,-0.33037 3.57143,-0.71429 0.63888,-0.21296 0.86824,-1.05501 1.42857,-1.42857 0.44298,-0.29532 0.95238,-0.47619 1.42857,-0.71428 0.47619,-0.71429 0.75823,-1.60658 1.42857,-2.14286 0.50566,-2.1779 1.9791,-0.27526 2.85715,-0.71429 0.30117,-0.15058 0.47619,-0.47619 0.71428,-0.71428 0.47619,-0.47619 0.88983,-1.02451 1.42857,-1.42857 0.85184,-0.63888 2.00531,-0.7897 2.85715,-1.42858 0.53875,-0.40406 0.88982,-1.02451 1.42857,-1.42857 0.95721,-0.71791 2.54247,-1.01699 3.57143,-1.42857 0.49432,-0.19773 0.90651,-0.60987 1.42857,-0.71428 1.6343,-0.32686 3.35008,0.2357 5,0 1.98449,1.38943 1.82414,-1.17033 2.85714,-1.42858 0.69296,-0.17324 1.42857,0 2.14286,0 0.47619,0 0.95238,0 1.42857,0 3.57143,0 7.14286,0 10.71429,0 2.14285,0 4.28571,0 6.42857,0 0.56997,0 3.1429,-0.14284 3.57143,0 4.04691,2.02346 -1.0648,-0.26619 2.85714,0.71429 0.5165,0.12913 0.92349,0.54593 1.42857,0.71429 0.22588,0.0753 0.47619,0 0.71429,0 0.71428,0 1.42857,0 2.14285,0 0.47619,0 0.98644,-0.17686 1.42857,0 0.79707,0.31882 1.37503,1.04465 2.14286,1.42857 0.21296,0.10648 0.50133,-0.10648 0.71429,0 0.30117,0.15058 0.43412,0.52751 0.71428,0.71428 0.44298,0.29532 1.05211,0.33783 1.42857,0.71429 0.60703,0.60702 0.82155,1.53583 1.42858,2.14286 0.60702,0.60702 1.47251,0.89229 2.14285,1.42857 0.52587,0.42069 0.95238,0.95238 1.42857,1.42857 0.4762,0.47619 1.02452,0.88982 1.42858,1.42857 0.31943,0.42592 0.39484,1.00265 0.71428,1.42857 0.40406,0.53875 1.02451,0.88982 1.42857,1.42857 0.31944,0.42592 0.41897,0.98559 0.71429,1.42857 0.37355,0.56034 1.1274,0.82624 1.42857,1.42858 0.10648,0.21295 -0.10648,0.50132 0,0.71428 0.15059,0.30117 0.60781,0.39485 0.71429,0.71429 0.15058,0.45175 -0.21296,1.00265 0,1.42857 0.30117,0.60234 0.95238,0.95238 1.42857,1.42857 0.23809,0.2381 0.47619,0.47619 0.71428,0.71429 0.2381,0.23809 0.41312,0.5637 0.71429,0.71428 0.21296,0.10648 0.47619,0 0.71428,0 0.2381,0 0.4762,0 0.71429,0 1.19048,0 2.38095,0 3.57143,0 0.51065,0 3.92008,0.12188 4.28571,0 0.31944,-0.10648 0.41312,-0.5637 0.71429,-0.71428 0.42592,-0.21296 1.00265,0.21295 1.42857,0 0.30117,-0.15059 0.43412,-0.52751 0.71429,-0.71429 0.44298,-0.29532 0.98559,-0.41897 1.42857,-0.71429 0.28016,-0.18677 0.47619,-0.47619 0.71428,-0.71428 0.2381,-0.2381 0.5637,-0.41312 0.71429,-0.71429 0.10648,-0.21296 -0.10648,-0.50132 0,-0.71428 0.15058,-0.30117 0.5637,-0.41312 0.71428,-0.71429 0.20503,-0.41005 -0.152,-2.96342 0,-3.57143 0.12913,-0.5165 0.58517,-0.91207 0.71429,-1.42857 0.12511,-0.50046 0,-4.02708 0,-4.28571 0,-0.54602 -0.10048,-4.79904 0,-5 0.30117,-0.60234 1.05502,-0.86824 1.42857,-1.42857 0.29532,-0.44299 0.27131,-1.13326 0.71429,-1.42858 0.39621,-0.26414 0.95238,0 1.42857,0 0.7428,0 3.72384,0.14047 4.28571,0 1.11841,-0.2796 3.22735,-1.93118 4.28572,-2.14285 0.70041,-0.14009 1.42857,0 2.14285,0 0.2381,0 0.50133,0.10648 0.71429,0 0.30117,-0.15059 0.41312,-0.5637 0.71429,-0.71429 0.21296,-0.10648 0.47619,0 0.71428,0 0.47619,0 0.9666,0.11549 1.42857,0 1.29282,0.43052 1.32845,-1.1571 2.14286,-1.42857 0.45175,-0.15058 0.97682,0.15058 1.42857,0 1.16204,-0.38735 1.35102,-3.36462 1.42857,-3.57143 0.37388,-0.997 0.83793,-1.97118 1.42857,-2.85714 0.37356,-0.56033 0.95239,-0.95238 1.42858,-1.42857 0.23809,-0.2381 0.47619,-0.95238 0.71428,-0.71429 0.2381,0.2381 -0.95238,0.95238 -0.71428,0.71429 0.47619,-0.47619 0.95238,-0.95238 1.42857,-1.42857 0.23809,-0.47619 0.33782,-1.05211 0.71428,-1.42858 0.37646,-0.37646 1.00266,-0.39484 1.42857,-0.71428 0.53875,-0.40406 0.95239,-0.95238 1.42858,-1.42857 0.95238,-0.95238 1.90476,-1.90476 2.85714,-2.85715 0.47619,-0.47619 0.86824,-1.05501 1.42857,-1.42857 1.18341,-0.78894 1.62228,-0.71428 2.85714,-0.71428 0.2381,0 0.47619,0 0.71429,0 0.23809,0 0.50133,0.10648 0.71428,0 1.09399,-0.547 0.55859,-1.27287 1.42858,-2.14286 0.19096,-0.19096 3.11581,0.22781 3.57142,0 1.52836,-0.76418 -0.0998,-0.66439 1.42858,-1.42857 0.21296,-0.10648 0.50132,0.10648 0.71428,0 0.30117,-0.15059 0.47619,-0.47619 0.71429,-0.71429 0.89436,-0.89436 1.52386,-1.42857 2.85714,-1.42857"
       id="path3346"
       inkscape:connector-curvature="0" />
    <path
       style="fill:#00aa00;fill-rule:evenodd;stroke:#000000;stroke-width:1px;stroke-linecap:butt;stroke-linejoin:miter;stroke-opacity:1"
       d="m 459.28571,741.44487 c -2.25218,1.46646 -3.87555,3.16127 -5.71428,5 -0.47619,0.47619 -1.05502,0.86824 -1.42857,1.42857 -0.59064,0.88596 -0.83793,1.97118 -1.42857,2.85714 -0.18678,0.28017 -0.47619,0.47619 -0.71429,0.71429 -0.95238,0.95238 -1.90476,1.90476 -2.85714,2.85714 -0.47619,0.47619 -1.1274,0.82623 -1.42857,1.42857 -0.43903,0.87805 -0.3497,1.94567 -0.71429,2.85715 -0.12505,0.31263 -0.5637,0.41311 -0.71429,0.71428 -0.0745,0.14899 -7e-5,3.57114 0,3.57143 0.12913,0.5165 0.54593,0.9235 0.71429,1.42857 0.15059,0.45176 0,0.95238 0,1.42857 0,1.19048 -0.16836,2.39292 0,3.57143 0.59463,4.16243 0.45645,1.62718 2.14286,5 0.87962,1.75925 -2.07338,-0.64481 0.71428,2.14286 0.37646,0.37646 0.98559,0.41896 1.42857,0.71428 1.77675,1.1845 0.0821,0.16413 0.71429,1.42858 0.15059,0.30117 0.5637,0.41311 0.71429,0.71428 0.13017,0.26034 0,3.15986 0,3.57143 0,2.85714 0,5.71429 0,8.57143 0,1.64156 -0.65746,0.98619 -1.42858,2.14286 -1.57368,0.35971 -0.37756,1.46942 -0.71428,2.14285 -0.15059,0.30117 -0.5637,0.41312 -0.71429,0.71429 -0.10648,0.21296 0.16836,0.54593 0,0.71428 -0.37646,0.37647 -1.05211,0.33783 -1.42857,0.71429 -0.37646,0.37646 -0.41896,0.98559 -0.71428,1.42857 -0.18678,0.28017 -0.47619,0.47619 -0.71429,0.71429 -0.23809,0.23809 -0.5637,0.41311 -0.71429,0.71428 -0.10647,0.21296 0,0.47619 0,0.71429 0,0.23809 -0.16835,0.54593 0,0.71428 0.16836,0.16836 0.71429,0.2381 0.71429,0 0,-0.33671 -0.95238,-0.47619 -0.71429,-0.71428 0.33672,-0.33672 0.97682,0.15058 1.42858,0 0.82048,-0.2735 0.99101,-1.70531 1.42857,-2.14286 1.24354,-1.24354 1.44262,-0.43138 2.85714,-0.71428 0.7383,-0.14766 1.44379,-0.43466 2.14286,-0.71429 0.49432,-0.19773 1.00265,-0.39485 1.42857,-0.71429 0.53875,-0.40406 0.95238,-0.95238 1.42857,-1.42857 0.71429,-0.71428 1.42857,-1.42857 2.14286,-2.14285 0.47619,-0.47619 0.95238,-0.95239 1.42857,-1.42858 0.47619,-0.47619 1.05502,-0.86824 1.42857,-1.42857 0.13207,-0.1981 -0.0753,-0.48841 0,-0.71428 0.16836,-0.50508 0.58516,-0.91207 0.71429,-1.42857 0.14046,-0.56187 0,-3.54292 0,-4.28572 0,-0.47619 0,-0.95238 0,-1.42857 0,-0.2381 -0.16836,-0.54593 0,-0.71429 0.37646,-0.37646 1.05211,-0.33782 1.42857,-0.71428 0.16836,-0.16836 0,-0.47619 0,-0.71429 0,-0.23809 0,-0.47619 0,-0.71428 0,-1.42857 0,-2.85715 0,-4.28572 0,-0.47619 -0.15059,-0.97681 0,-1.42857 0.16836,-0.50507 0.58516,-0.91207 0.71428,-1.42857 0.16189,-0.64753 0,-2.74166 0,-3.57143 0,-0.23809 0.10648,-0.50133 0,-0.71428 -0.48781,-0.97563 -0.99347,-0.31182 -0.71428,-1.42858 0.18261,-0.73044 0.53167,-1.41241 0.71428,-2.14285 0.16448,-0.65792 -0.21391,-1.50111 0,-2.14286 2.02346,-4.04692 -0.2662,1.06479 0.71429,-2.85714 0.12912,-0.5165 0.58516,-0.91207 0.71428,-1.42857 0.1155,-0.46198 -0.0934,-0.96163 0,-1.42858 0.29533,-1.4766 1.06335,-2.82482 1.42858,-4.28571 0.14624,-0.58498 -0.24087,-1.42857 0,-1.42857 0.23809,0 0,0.95238 0,0.71428 0,-0.95238 0.18677,-1.92325 0,-2.85714 -0.41039,-2.05191 -0.36542,-1.79399 -1.42858,-2.85714 -0.23809,-0.2381 -0.43412,-0.52751 -0.71428,-0.71429 -0.44298,-0.29532 -1.05211,-0.33782 -1.42857,-0.71428 -0.35715,-0.35715 0.35714,-1.78572 0,-2.14286 -0.75293,-0.75292 -2.68209,-0.37826 -2.85715,-1.42857 2.4623,-3.28306 2.67526,-1.79235 1.42858,-4.28572 1.9495,5.84854 1.10041,1.04245 0,2.14286 -0.60703,0.60703 -0.95239,1.42857 -1.42858,2.14286 z"
       id="path3348"
       inkscape:connector-curvature="0" />
    <path
       style="fill:#00aa00;stroke:#d7e3f4;stroke-width:0.71428573"
       d="m 369.04189,824.6976 c -0.39624,-0.49107 -1.0161,-5.10014 -1.37746,-10.24238 l -0.65704,-9.34952 -2.46981,-2.46981 c -1.3584,-1.3584 -3.36805,-4.58328 -4.46589,-7.16642 -1.5465,-3.63876 -2.71069,-5.20978 -5.16877,-6.97505 -1.74497,-1.25314 -3.17268,-2.54175 -3.17268,-2.86359 0,-0.32183 -0.93352,-1.50721 -2.07449,-2.63419 -1.14097,-1.12697 -2.81046,-3.49547 -3.70999,-5.26332 -0.89952,-1.76786 -2.05529,-3.47133 -2.56836,-3.7855 -0.51308,-0.31416 -0.93287,-1.03195 -0.93287,-1.59509 0,-0.56314 -2.00893,-2.61284 -4.46429,-4.55491 -2.45535,-1.94205 -5.53504,-4.67963 -6.84374,-6.08348 -1.30871,-1.40385 -2.82936,-2.55245 -3.37925,-2.55245 -0.54989,0 -1.20769,-0.82836 -1.4618,-1.84079 -0.75329,-3.00136 0.086,-24.76988 1.02187,-26.50511 0.59174,-1.09712 0.84149,-7.83866 0.84149,-22.71405 0,-17.56463 -0.1849,-21.51142 -1.08977,-23.26124 -1.32346,-2.5593 -2.6562,-2.68038 -4.16453,-0.37837 -1.99168,3.03968 -7.22154,3.98592 -21.99849,3.98019 -16.98492,-0.006 -22.74625,-0.5289 -22.75005,-2.06249 -0.004,-1.51975 -9.49922,-10.98543 -13.56858,-13.52603 -1.76786,-1.10372 -3.72108,-2.51393 -4.3405,-3.13381 -0.61941,-0.61987 -3.19084,-2.16553 -5.71428,-3.4348 -2.52345,-1.26927 -4.74974,-2.55856 -4.94731,-2.86509 -0.19758,-0.30653 -1.80472,-1.10381 -3.57143,-1.77175 -1.76671,-0.66793 -4.22506,-1.66139 -5.46301,-2.20768 -1.23794,-0.5463 -2.6511,-0.99327 -3.14035,-0.99327 -0.48925,0 -2.52996,-1.06892 -4.53491,-2.37538 -2.00495,-1.30646 -4.60964,-2.76396 -5.78821,-3.23889 -1.56556,-0.63087 -2.577,-1.86715 -3.75431,-4.5889 -0.8863,-2.04897 -1.60951,-4.3794 -1.60715,-5.17873 0.002,-0.79933 -0.63854,-3.28237 -1.42426,-5.51787 -1.79853,-5.11715 -2.00712,-16.39904 -0.36154,-19.55429 0.58686,-1.12527 1.06901,-2.94447 1.07143,-4.04269 0.006,-2.67582 2.76095,-5.29757 6.17459,-5.87583 1.51711,-0.257 3.88338,-0.9878 5.25838,-1.624 1.375,-0.6362 2.8679,-1.08379 3.31756,-0.99463 0.44966,0.0892 1.61755,-0.78861 2.5953,-1.95061 1.191,-1.41542 3.15462,-2.51298 5.94954,-3.32549 5.08674,-1.47876 8.35778,-3.97525 10.01037,-7.64003 0.68516,-1.51941 2.07086,-3.19512 3.07934,-3.72381 1.00848,-0.52869 2.9413,-2.11367 4.29515,-3.52219 2.12584,-2.21168 2.90516,-2.55862 5.71429,-2.5439 1.789,0.009 4.48152,0.30223 5.98337,0.6508 2.40553,0.55831 2.66918,0.4925 2.2145,-0.55275 -0.28388,-0.65259 -0.74611,-2.79367 -1.02718,-4.75795 -0.58743,-4.10528 -2.00895,-8.21429 -2.84176,-8.21429 -2.1097,0 -5.47956,-12.75222 -3.66604,-13.87304 0.44227,-0.27334 0.80413,-2.06023 0.80413,-3.97086 0,-3.29652 0.19084,-3.64083 3.73773,-6.74356 l 3.73773,-3.26968 6.01628,0 c 5.46461,0 6.25169,0.18011 8.5837,1.96429 2.49765,1.9109 2.85965,1.9708 13.32179,2.20434 9.14458,0.20412 10.89511,0.0705 11.6946,-0.89286 0.81224,-0.97869 3.35431,-1.13291 18.67411,-1.13291 l 17.73387,0 3.17511,2.14285 c 1.74632,1.17858 3.46723,2.14286 3.82427,2.14286 1.22589,0 5.06629,4.64593 6.93767,8.39286 1.0301,2.0625 2.20258,3.75 2.6055,3.75 0.40293,0 1.62134,1.87926 2.70759,4.17614 1.08625,2.29688 2.80909,5.24191 3.82854,6.54452 l 1.85353,2.36838 14.17685,-0.83681 c 7.79727,-0.46025 14.86707,-0.83386 15.71069,-0.83024 1.41817,0.006 1.56672,0.47792 1.96977,6.25658 0.23975,3.4375 0.59409,7.53571 0.78741,9.10714 0.19333,1.57143 0.36353,3.33929 0.37823,3.92857 0.10877,4.36021 3.12496,14.28572 4.34118,14.28572 0.31856,0 1.90676,1.95493 3.52935,4.3443 l 2.95016,4.34431 6.17176,-0.51411 c 5.73243,-0.47751 10.84974,-2.1737 11.95544,-3.96277 0.21765,-0.35216 2.98304,-0.6403 6.1453,-0.6403 l 5.74957,0 -0.49023,1.96428 c -0.26963,1.08036 -0.94733,2.47174 -1.50601,3.09196 -0.55868,0.62022 -1.01578,1.71991 -1.01578,2.44376 0,0.72385 -0.47446,1.84036 -1.05436,2.48114 -0.5799,0.64079 -1.19887,1.95181 -1.37549,2.91339 -0.17662,0.96157 -0.39397,1.90904 -0.483,2.10547 -0.089,0.19643 -0.22267,0.67857 -0.29697,1.07143 -0.57968,3.06483 -1.56706,5.35967 -3.227,7.5 -1.06638,1.375 -2.43974,3.46428 -3.05191,4.64285 -0.61217,1.17857 -1.78122,2.70222 -2.59787,3.38587 -0.81665,0.68365 -1.48482,1.66728 -1.48482,2.18583 0,1.22517 -4.18026,5.49973 -5.3784,5.49973 -0.50775,0 -1.75533,0.98895 -2.7724,2.19767 -1.52888,1.81697 -1.8492,2.92249 -1.8492,6.38207 0,2.30142 0.37295,5.08926 0.82879,6.19519 0.45583,1.10594 0.75266,3.77864 0.65962,5.93936 -0.13817,3.20865 0.16535,4.42121 1.65631,6.61691 2.13996,3.15147 2.43797,7.13102 2.6077,34.82279 l 0.10296,16.79862 -4.89198,4.98798 c -7.20446,7.34585 -7.50343,8.61496 -7.36268,31.25345 0.0686,11.0248 -0.17546,18.75553 -0.62855,19.91434 -0.85314,2.18196 -4.40127,5.08213 -8.11698,6.63465 -1.41236,0.59012 -4.21552,2.60899 -6.22924,4.48639 -2.89333,2.69744 -3.69838,3.93784 -3.83801,5.91344 -0.14106,1.9959 -0.50637,2.54718 -1.81171,2.73397 -0.89926,0.12869 -1.83078,0.77154 -2.07005,1.42857 -0.23927,0.65703 -1.1839,2.10319 -2.09918,3.21369 -0.91528,1.1105 -1.66415,2.42675 -1.66415,2.92501 0,0.49826 -0.64285,1.48769 -1.42857,2.19876 -0.78571,0.71106 -1.42893,1.64481 -1.42937,2.07499 -10e-4,1.25518 -3.58989,4.57039 -8.21349,7.58776 -3.39492,2.21553 -4.97274,2.80106 -7.59111,2.81706 -1.81796,0.0111 -3.62959,-0.3816 -4.02581,-0.87267 z"
       id="path3350"
       inkscape:connector-curvature="0" />
    <path
       style="fill:#00aa00;stroke:#d7e3f4;stroke-width:0.71428573"
       d="m 516.35556,606.82758 c -0.38321,-0.86969 -1.68019,-2.22204 -2.88217,-3.00524 -2.23423,-1.4558 -6.02886,-6.22227 -6.02886,-7.5729 0,-0.74321 -2.39042,-5.83379 -5.0052,-10.65898 -0.74512,-1.375 -1.37019,-3.33699 -1.38907,-4.35999 -0.0333,-1.80611 -1.1198,-3.23786 -5.44972,-7.18148 -1.14652,-1.04422 -3.3703,-3.39587 -4.94173,-5.22588 -1.57142,-1.83 -3.58035,-4.12612 -4.46428,-5.10248 -0.88393,-0.97636 -1.60173,-2.16043 -1.59512,-2.63126 0.006,-0.47083 -2.14959,-2.86498 -4.79156,-5.32034 l -4.80358,-4.46429 -10.19118,0 c -8.9276,0 -10.48115,-0.17679 -12.52987,-1.4259 -2.59703,-1.58341 -3.30806,-1.70017 -4.75876,-0.78147 -0.78925,0.49982 -0.81189,0.82542 -0.11097,1.59621 0.48429,0.53257 2.05547,3.21831 3.4915,5.96831 2.0236,3.87518 3.20607,5.29086 5.25627,6.29293 2.01646,0.98558 2.98165,1.11293 4.06019,0.53572 0.77818,-0.41647 4.33895,-0.75722 7.91282,-0.75722 7.11617,0 8.20389,0.65722 6.46502,3.90632 -0.4907,0.9169 -0.74028,2.10057 -0.55461,2.63038 0.18568,0.52981 -0.006,1.76687 -0.42744,2.74901 -0.42658,0.99572 -0.9342,9.05363 -1.14744,18.21429 -0.36707,15.76958 -0.44006,16.43683 -1.81955,16.63454 -1.75225,0.25113 -6.28905,-6.09779 -7.45714,-10.43573 -0.42025,-1.5607 -1.19704,-3.00378 -1.7262,-3.20684 -0.52916,-0.20305 -1.1605,-1.3611 -1.40296,-2.57344 -0.49097,-2.45484 -1.48482,-2.70699 -5.27192,-1.33756 -1.45932,0.52769 -2.55197,1.48498 -2.79353,2.44743 -0.21821,0.86941 -1.01069,2.13636 -1.76107,2.81545 -0.75038,0.67908 -1.36433,1.66702 -1.36433,2.19542 0,0.74665 -1.75391,0.96073 -7.87134,0.96073 -7.16653,0 -8.1099,-0.1575 -10.53571,-1.75888 -5.55991,-3.67034 -6.88212,-5.5952 -7.5984,-11.06157 -0.67699,-5.16659 -2.15825,-7.47982 -6.73754,-10.52182 -2.09792,-1.39364 -4.66935,-3.76066 -5.71428,-5.26003 -1.04493,-1.49938 -2.57793,-3.10025 -3.40667,-3.55749 -1.50773,-0.83186 -3.85035,-4.90624 -3.85035,-6.69669 0,-0.52298 -0.59412,-1.71743 -1.32026,-2.65434 -0.72614,-0.93691 -1.51504,-3.39493 -1.7531,-5.46227 -0.40391,-3.50759 -3.79759,-10.78026 -8.76294,-18.77909 -1.51491,-2.4404 -2.57094,-6.55156 -3.5093,-13.66184 -0.24262,-1.83842 -1.06769,-4.13912 -1.83348,-5.11266 -0.76579,-0.97355 -1.39234,-2.10133 -1.39234,-2.50619 0,-0.40486 -0.98524,-1.80059 -2.18941,-3.10162 -1.20418,-1.30104 -2.66595,-3.48613 -3.24838,-4.85576 -2.12111,-4.98798 -3.41392,-5.72404 -10.05361,-5.72404 l -5.95667,0 -4.6391,6.34439 c -4.98657,6.8196 -6.1579,7.59882 -12.5209,8.32945 l -3.96522,0.4553 -3.20077,-3.81457 c -1.76042,-2.09801 -3.58981,-4.61814 -4.06532,-5.60028 -0.4755,-0.98215 -1.1885,-2.26786 -1.58444,-2.85715 -0.39594,-0.58928 -1.03318,-1.95535 -1.41608,-3.03571 -0.42298,-1.19347 -1.21982,-1.96429 -2.0306,-1.96429 -0.73394,0 -3.20293,-0.64285 -5.48665,-1.42857 -2.52519,-0.86879 -6.01247,-1.42857 -8.89967,-1.42857 -4.09376,0 -5.13567,0.2819 -7.56675,2.04728 -1.55061,1.126 -4.01962,2.43498 -5.48669,2.90885 -3.13321,1.01203 -5.33364,3.53796 -5.95161,6.83198 -0.24324,1.2966 -1.37669,3.2527 -2.51877,4.34688 -1.14208,1.09419 -2.10941,2.6525 -2.14962,3.46293 -0.0517,1.04213 -0.24067,0.84617 -0.64545,-0.66935 -0.31478,-1.17857 -0.89764,-3.10714 -1.29525,-4.28571 -1.67969,-4.97882 -2.2719,-7.35171 -2.2719,-9.10306 0,-1.02232 -0.80357,-2.81375 -1.78572,-3.98097 -1.1805,-1.40295 -1.78571,-2.99301 -1.78571,-4.6916 0,-1.79583 -0.4301,-2.83801 -1.42857,-3.46157 -1.28478,-0.80235 -1.42857,-1.66573 -1.42857,-8.57748 0,-7.13124 0.0999,-7.68532 1.38641,-7.68532 0.76253,0 1.57058,-0.29798 1.79567,-0.66218 0.22508,-0.36419 1.61012,-1.05507 3.07787,-1.53529 1.46774,-0.48021 3.7865,-1.78937 5.15279,-2.90925 2.16585,-1.77523 3.08114,-2.03665 7.14286,-2.04012 2.56228,-0.002 5.8977,-0.34803 7.41206,-0.76852 2.4705,-0.68598 2.93799,-0.59384 4.55021,0.89684 0.98825,0.91376 2.97568,4.07209 4.41649,7.01852 l 2.61967,5.35714 7.3687,0.20438 c 4.05278,0.11241 7.73705,-0.0985 8.18727,-0.46857 0.45021,-0.37013 2.90785,-1.05866 5.46143,-1.53007 4.61607,-0.85217 8.07816,-2.6515 9.86193,-5.1255 0.51334,-0.71199 1.50817,-1.29453 2.21072,-1.29453 0.70255,0 1.85914,-0.64285 2.5702,-1.42857 0.71107,-0.78571 1.68581,-1.42857 2.1661,-1.42857 0.4803,0 1.28882,-0.50071 1.79672,-1.1127 1.59275,-1.91914 5.83993,-3.30769 9.0595,-2.96187 2.09239,0.22475 3.28716,0.006 3.88302,-0.71243 0.71562,-0.86227 3.03543,-0.97541 13.76339,-0.67131 14.66849,0.41581 18.54679,0.87484 21.10184,2.49754 3.86451,2.45435 13.58658,13.1388 13.58658,14.93152 0,0.38156 0.66618,1.54066 1.48041,2.57578 1.36504,1.73536 1.89941,1.88204 6.85634,1.88204 5.89006,0 9.64398,-1.29161 11.35835,-3.90806 0.59724,-0.9115 1.18771,-4.33008 1.43122,-8.28609 0.54686,-8.88426 1.09155,-9.9487 5.09093,-9.9487 1.7153,0 3.83062,-0.44731 4.70073,-0.99401 0.87011,-0.5467 3.09464,-1.20713 4.9434,-1.46762 4.85744,-0.6844 7.46059,-2.18396 7.93838,-4.57292 0.79882,-3.99411 11.86399,-15.10831 15.04167,-15.10831 1.05473,0 2.1027,-0.48214 2.32883,-1.07143 0.22614,-0.58929 1.26069,-1.08037 2.29901,-1.0913 1.03833,-0.0109 3.13845,-0.96624 4.66693,-2.12291 1.52848,-1.15667 3.13562,-1.89335 3.57142,-1.63708 0.43581,0.25628 4.03953,2.63334 8.00827,5.28236 35.41523,23.63868 65.05624,59.68566 82.45878,100.27963 3.06327,7.14554 10.68247,28.53132 10.68247,29.98386 0,0.23493 -0.62173,0.0944 -1.38162,-0.31229 -2.41656,-1.2933 -6.74076,-0.9082 -7.73833,0.68916 -0.76132,1.21906 -1.66573,1.42857 -6.16683,1.42857 -3.94501,0 -5.3747,-0.26068 -5.67148,-1.03408 -0.21825,-0.56875 -1.35706,-1.53065 -2.5307,-2.13756 -1.90038,-0.98272 -2.25157,-0.98579 -3.2094,-0.028 -2.02879,2.0288 -10.16564,5.89758 -14.13846,6.72233 -3.30592,0.6863 -4.35913,1.30434 -6.26565,3.67675 -4.0881,5.08709 -3.73062,14.45143 0.6379,16.71048 1.93321,0.9997 3.4153,4.66729 2.49065,6.16341 -0.21785,0.35251 -2.86821,0.64822 -5.88967,0.65714 -4.89513,0.0144 -5.9957,0.28679 -10.10325,2.5 -2.53533,1.36608 -5.51493,2.48378 -6.62134,2.48378 -2.15736,0 -7.21628,2.83831 -8.20366,4.60268 -0.4963,0.88683 -0.72118,0.7987 -1.29713,-0.50842 l 0,4e-5 z"
       id="path3352"
       inkscape:connector-curvature="0" />
    <path
       style="fill:none;fill-rule:evenodd;stroke:#000000;stroke-width:1px;stroke-linecap:butt;stroke-linejoin:miter;stroke-opacity:1"
       d="m 172.85714,542.15915 c 2.5926,3.24075 2.82469,3.01951 4.28572,6.42858 0.59318,1.38409 0.86931,2.88757 1.42857,4.28571 0.39545,0.98864 0.88074,1.94409 1.42857,2.85714 0.44168,0.73613 1.04465,1.37503 1.42857,2.14286 0.10648,0.21296 -0.10648,0.50133 0,0.71429 0.15059,0.30116 0.5637,0.41311 0.71429,0.71428 0.10648,0.21296 0,0.47619 0,0.71429 0.47619,0.47619 1.05501,0.86824 1.42857,1.42857 0.13207,0.19811 -0.0753,0.48841 0,0.71428 0.16836,0.50508 0.58516,0.91207 0.71428,1.42858 0.17324,0.69295 0,1.42857 0,2.14285 0,0.47619 0,0.95238 0,1.42857 0,0.2381 0.10648,0.50133 0,0.71429 -0.15058,0.30117 -0.5637,0.41312 -0.71428,0.71429 -0.10648,0.21295 0.10648,0.50132 0,0.71428 -0.15059,0.30117 -0.47619,0.47619 -0.71429,0.71429 -0.81725,0.81725 -0.99613,0.84555 -1.42857,2.14285 -0.0753,0.22588 0,0.47619 0,0.71429 -0.23809,0.2381 -0.5637,0.41312 -0.71428,0.71429 -0.21296,0.42591 0.21295,1.00265 0,1.42857 -0.15059,0.30117 -0.56371,0.41311 -0.71429,0.71428 -0.10648,0.21296 0.10648,0.50133 0,0.71429 -1.08913,2.17826 -0.56626,-1.30639 -1.42857,2.14286 -0.11549,0.46197 0,0.95238 0,1.42857 0,1.90476 0,3.80952 0,5.71428 0,4.52381 0,9.04762 0,13.57143 0,3.09524 0,6.19048 0,9.28572 0,0.95238 0,1.90476 0,2.85714 0,0.47619 0,0.95238 0,1.42857 0,0.2381 -0.10648,0.50133 0,0.71429 0.15058,0.30117 0.5637,0.41311 0.71428,0.71428 0.10648,0.21296 0,0.47619 0,0.71429 0,0.47619 -0.11549,0.9666 0,1.42857 0.12913,0.5165 0.54593,0.92349 0.71429,1.42857 0.15058,0.45175 0,0.95238 0,1.42857 0,1.19048 0,2.38095 0,3.57143 0,0.49681 0.12916,3.31312 0,3.57143 -0.15058,0.30117 -0.5637,0.41311 -0.71429,0.71428 -0.10647,0.21296 0.10648,0.50133 0,0.71429 -0.15058,0.30117 -0.5637,0.41312 -0.71428,0.71429 -0.10648,0.21295 0.0753,0.4884 0,0.71428 -0.16836,0.50508 -0.54593,0.9235 -0.71429,1.42857 -0.0753,0.22588 0.10648,0.50133 0,0.71429 -0.40943,0.81887 -1.49036,0.99358 -2.14285,1.42857 -0.28017,0.18678 -0.41312,0.5637 -0.71429,0.71429 -0.21296,0.10648 -0.48841,-0.0753 -0.71429,0 -0.50507,0.16835 -0.92349,0.54592 -1.42857,0.71428 -0.22587,0.0753 -0.50132,-0.10648 -0.71428,0 -0.60234,0.30117 -0.86824,1.05502 -1.42857,1.42857 -0.44299,0.29532 -0.95239,0.47619 -1.42858,0.71429 -0.47619,0.23809 -0.92349,0.54593 -1.42857,0.71428 -2.12631,0.70877 1.46558,-1.69133 -2.14285,0.71429 -0.56034,0.37355 -0.82624,1.1274 -1.42858,1.42857 -2.102,1.051 0.94042,-1.6547 -1.42857,0.71429 -0.23809,0.23809 -0.47619,0.95238 -0.71428,0.71428 -0.2381,-0.23809 0.71428,-1.051 0.71428,-0.71428 0,0.53239 -0.58516,0.91207 -0.71428,1.42857 -0.1155,0.46197 0.26414,1.03236 0,1.42857 -0.29532,0.44298 -0.98559,0.41896 -1.42857,0.71429 -1.77674,1.18449 -0.0821,0.16412 -0.71429,1.42857 -0.15058,0.30117 -0.47619,0.47619 -0.71429,0.71428 -0.23809,0.2381 -0.47619,0.47619 -0.71428,0.71429"
       id="path3354"
       inkscape:connector-curvature="0" />
    <path
       style="fill:#00aa00;stroke:#d7e3f4;stroke-width:0.71428573"
       d="m 158.37704,626.55468 c 0.49857,-23.34843 2.32374,-37.47304 7.32395,-56.67851 2.3177,-8.90215 7.62319,-25 8.23943,-25 0.55603,0 2.40236,3.72693 3.79656,7.66356 0.52468,1.48147 2.01112,4.46144 3.3032,6.62216 2.82728,4.72799 2.91763,7.31079 0.40568,11.59712 -1.02216,1.74418 -1.85847,3.67872 -1.85847,4.29897 0,0.62024 -0.40179,1.2613 -0.89286,1.42458 -1.27606,0.42427 -1.69758,32.93153 -0.49785,38.39361 1.34941,6.14356 1.25036,10.0106 -0.35193,13.73919 -1.03277,2.40329 -2.03362,3.58433 -3.45839,4.081 -1.10276,0.38443 -2.92434,1.35358 -4.04797,2.15367 -1.12363,0.80009 -2.40814,1.45471 -2.85448,1.45471 -0.44633,0 -1.84314,0.72213 -3.10402,1.60473 -1.26088,0.8826 -2.3901,1.64985 -2.50939,1.70498 -0.11928,0.0551 -0.27501,0.69908 -0.34607,1.43099 -0.0711,0.7319 -0.90043,2.08606 -1.84305,3.00924 l -1.71386,1.67851 0.40952,-19.17851 z"
       id="path3356"
       inkscape:connector-curvature="0" />
    <path
       style="fill:none;fill-rule:evenodd;stroke:#000000;stroke-width:1px;stroke-linecap:butt;stroke-linejoin:miter;stroke-opacity:1"
       d="m 510,599.30201 c 0.71429,0.95238 1.42857,1.90476 2.14286,2.85714 0.47619,0.2381 1.05211,0.33783 1.42857,0.71429 0.0458,0.0458 1.33987,2.72409 1.42857,2.85714 0.41091,0.61636 1.58494,1.58494 2.14286,2.14286 0.23809,0.2381 0.5637,0.41312 0.71428,0.71429 0.10648,0.21295 -0.10648,0.50132 0,0.71428 0.57769,1.15537 2.14094,1.06855 2.85715,2.14286 0.29532,0.44298 0.39484,1.00265 0.71428,1.42857 0.40406,0.53875 0.95238,0.95238 1.42857,1.42857 0.47619,0.47619 0.90271,1.00788 1.42857,1.42857 0.67035,0.53628 1.47251,0.8923 2.14286,1.42857 0.52587,0.4207 0.91123,0.99745 1.42857,1.42858 0.91455,0.76212 1.95327,1.3681 2.85715,2.14285 0.76696,0.6574 1.42857,1.42857 2.14285,2.14286 0.2381,0.2381 0.43412,0.52751 0.71429,0.71429 5.71428,3.80952 -2.61905,-2.61905 2.14286,2.14285 0.12414,0.12415 3.3285,2.12836 3.57142,2.85715 0.30117,0.9035 -0.23098,1.93319 0,2.85714 0.12913,0.5165 0.58517,0.91207 0.71429,1.42857 0.11549,0.46197 -0.0934,0.96163 0,1.42857 0.14766,0.7383 0.56663,1.40456 0.71429,2.14286 0.0934,0.46694 0,0.95238 0,1.42857 0,2.84444 0,1.44127 0,4.28571 0,0.47619 -0.0674,0.95717 0,1.42858 0.62375,4.36624 0.64872,2.52931 1.42857,6.42857 0.18319,0.91596 -0.22684,1.94978 0,2.85714 0.95238,3.80952 0.23809,-0.71429 2.14285,2.14286 0.26415,0.39621 -0.11549,0.9666 0,1.42857 0.12913,0.5165 0.54593,0.92349 0.71429,1.42857 0.0753,0.22588 -0.10648,0.50133 0,0.71429 0.15059,0.30117 0.60781,0.39484 0.71429,0.71428 0.15058,0.45176 -0.1155,0.9666 0,1.42857 0.12912,0.5165 0.54592,0.9235 0.71428,1.42857 0.15398,0.46194 0,2.7915 0,3.57143 0,0.2381 0,0.47619 0,0.71429 0,0.23809 -0.10648,0.50133 0,0.71428 0.15059,0.30117 0.71429,1.05101 0.71429,0.71429 0,-1.06479 -1.25352,-1.80684 -1.42857,-2.85714 -0.15657,-0.93943 0,-1.90476 0,-2.85715 0,-2.38095 0,-4.7619 0,-7.14285 0,-1.90476 0,-3.80953 0,-5.71429 0,-1.19047 -0.19572,-2.39715 0,-3.57143 0.12378,-0.74268 0.56662,-1.40455 0.71428,-2.14285 0.72261,-3.61303 -1.60518,1.51295 0.71429,-4.28572 0.12505,-0.31263 0.52751,-0.43412 0.71428,-0.71428 0.29532,-0.44299 0.33783,-1.05211 0.71429,-1.42858 0.60703,-0.60702 1.53583,-0.82154 2.14286,-1.42857 0.16836,-0.16836 -0.0753,-0.48841 0,-0.71428 0.16836,-0.50508 0.54592,-0.9235 0.71428,-1.42857 0.70877,-2.12631 -1.69133,1.46557 0.71429,-2.14286 0.18677,-0.28017 0.52751,-0.43412 0.71428,-0.71429 0.29532,-0.44298 0.39485,-1.00265 0.71429,-1.42857 0.40406,-0.53875 1.02451,-0.88982 1.42857,-1.42857 0.31944,-0.42592 0.44037,-0.97204 0.71429,-1.42857 0.44167,-0.73613 0.95238,-1.42857 1.42857,-2.14286 0.47619,-0.71428 0.89229,-1.47251 1.42857,-2.14286 0.42069,-0.52586 1.00788,-0.9027 1.42857,-1.42857 0.53628,-0.67035 1.04465,-1.37502 1.42857,-2.14285 0.10648,-0.21296 0,-0.47619 0,-0.71429 0.2381,-0.47619 0.41897,-0.98559 0.71429,-1.42857 0.18678,-0.28017 0.5637,-0.41312 0.71428,-0.71429 0.63029,-1.26058 -1.51584,-0.47025 0.71429,-2.14285 3.71178,-2.78384 0.96523,-0.0837 2.85714,-0.71429 2.44246,-0.81415 0.53154,-0.59245 2.85714,-2.14286 0.19811,-0.13207 0.50133,0.10648 0.71429,0 0.30117,-0.15058 0.47619,-0.47619 0.71429,-0.71428 0.71428,-0.2381 1.46942,-0.37757 2.14285,-0.71429 0.81887,-0.40943 0.99358,-1.49036 1.42857,-2.14286 0.18678,-0.28016 0.4762,-0.47619 0.71429,-0.71428 0.2381,-0.2381 0.41312,-0.5637 0.71429,-0.71429 0.21296,-0.10648 0.50132,0.10648 0.71428,0 0.30117,-0.15058 0.47619,-0.47619 0.71429,-0.71428 0.23809,-0.2381 0.47619,-0.47619 0.71428,-0.71429 0.95238,-0.95238 1.90477,-1.90476 2.85715,-2.85714 0.47619,-0.47619 0.88982,-1.02451 1.42857,-1.42857 0.85183,-0.63888 2.10422,-0.67565 2.85714,-1.42857 0.16836,-0.16836 -0.0753,-0.48841 0,-0.71429 0.16836,-0.50508 0.41897,-0.98559 0.71429,-1.42857 0.18677,-0.28017 0.5275,-0.43412 0.71428,-0.71429 0.9197,-1.37955 0.73162,-1.9452 1.42857,-3.57143 0.41945,-0.9787 1.03312,-1.8685 1.42857,-2.85714 0.12079,-0.30195 0,-3.12924 0,-3.57143 0,-0.95238 0,-1.90476 0,-2.85714 0,-0.47619 0,-0.95238 0,-1.42857 0,-0.2381 0.0753,-0.48841 0,-0.71429 -0.33671,-1.01015 -1.09185,-1.84699 -1.42857,-2.85714 -0.0753,-0.22588 0,-0.47619 0,-0.71429 0,-1.42857 0,-2.85714 0,-4.28571 0,-0.47619 0.1155,-0.9666 0,-1.42857 -0.12912,-0.5165 -0.54592,-0.9235 -0.71428,-1.42857 -0.14986,-0.44957 0,-2.9276 0,-3.57143"
       id="path3358"
       inkscape:connector-curvature="0" />
    <path
       style="fill:none;fill-rule:evenodd;stroke:#000000;stroke-width:1px;stroke-linecap:butt;stroke-linejoin:miter;stroke-opacity:1"
       d="m 554.28571,676.44487 c 0.95239,0.47619 2.17548,0.61057 2.85715,1.42857 0.62846,0.75416 0.44459,1.91322 0.71428,2.85714 0.20685,0.72396 0.47619,1.42857 0.71429,2.14286 0.23809,0.71429 0.29664,1.51639 0.71428,2.14286 0.56034,0.84049 1.53677,1.33473 2.14286,2.14285 0.28572,0.38096 -0.11549,0.9666 0,1.42858 0.18261,0.73044 0.56663,1.40455 0.71429,2.14285 0.23347,1.16736 -0.19572,2.39715 0,3.57143 1.04502,6.27013 0.26275,-1.09185 1.42857,3.57143 0.11549,0.46197 -0.11549,0.9666 0,1.42857 0.12912,0.5165 0.47619,0.95238 0.71428,1.42857 0.2381,0.47619 0.4762,0.95238 0.71429,1.42857 0.29,0.58 0.70141,1.77928 1.42857,2.14286 0.19329,0.0967 3.97804,0 4.28572,0 0.64383,0 3.12185,0.14986 3.57142,0 1.71692,-0.5723 3.91733,-2.12787 5,-3.57143 0.31944,-0.42591 0.39485,-1.00265 0.71429,-1.42857 0.40406,-0.53875 1.00788,-0.90271 1.42857,-1.42857 3.5416,-4.427 -0.0826,-0.23318 2.14286,-3.57143 0.18678,-0.28016 0.5637,-0.41311 0.71428,-0.71428 0.21073,-0.42145 -0.16376,-1.65155 0,-2.14286 0.16836,-0.50508 0.54593,-0.9235 0.71429,-1.42857 0.0753,-0.22588 0,-0.47619 0,-0.71429 0,-1.19047 0,-2.38095 0,-3.57143 0,-1.29422 0.21616,-3.20492 0,-4.28571 -0.066,-0.33018 -0.5637,-0.41312 -0.71429,-0.71429 -0.10647,-0.21296 0.10648,-0.50132 0,-0.71428 -0.15058,-0.30117 -0.41311,-0.5637 -0.71428,-0.71429 -0.26034,-0.13017 -3.15986,0 -3.57143,0 -1.42857,0 -2.85714,0 -4.28571,0 -0.47619,0 -0.95238,0 -1.42858,0 -0.23809,0 -0.4884,0.0753 -0.71428,0 -0.50508,-0.16836 -0.91207,-0.58516 -1.42857,-0.71428 -0.59048,-0.14762 -3.92272,0.1815 -4.28572,0 -0.30117,-0.15059 -0.41311,-0.56371 -0.71428,-0.71429 -0.21296,-0.10648 -0.48082,0.0467 -0.71429,0 -6.68038,-1.33608 0.44624,-0.067 -5,-1.42857 -1.38168,-0.34542 -0.75172,0.67684 -2.14286,-0.71429 -1.66667,0.2381 -3.33333,0.47619 -5,0.71429 z"
       id="path3360"
       inkscape:connector-curvature="0" />
    <path
       style="fill:none;fill-rule:evenodd;stroke:#000000;stroke-width:1px;stroke-linecap:butt;stroke-linejoin:miter;stroke-opacity:1"
       d="m 588.57143,568.58773 c -3.08678,-1.94657 -2.85714,-1.30279 -2.85714,-3.57143 0,-0.2381 0,-0.47619 0,-0.71429 0,-0.23809 0.10648,-0.50133 0,-0.71428 -0.15059,-0.30117 -0.47619,-0.47619 -0.71429,-0.71429"
       id="path3364"
       inkscape:connector-curvature="0" />
    <path
       style="fill:#00aa00;stroke:#d7e3f4;stroke-width:0.35714287"
       d="m 565.43512,701.70039 c -0.57253,-1.14567 -1.13042,-2.77854 -1.23974,-3.62861 -0.10932,-0.85006 -0.43724,-1.81435 -0.7287,-2.14285 -0.32816,-0.36986 -0.6059,-1.68518 -0.72942,-3.45443 -0.31679,-4.53756 -0.55946,-5.42482 -1.83062,-6.69329 -1.10572,-1.10339 -2.68484,-5.1679 -2.68484,-6.91056 0,-0.3497 -0.34944,-1.00779 -0.77654,-1.46241 l -0.77654,-0.82659 0.88952,0 c 1.3445,0 5.07711,0.73853 5.50271,1.08876 0.20617,0.16966 1.0901,0.41783 1.96428,0.55147 0.87419,0.13365 1.81504,0.42195 2.09079,0.64067 0.51205,0.40615 1.0586,0.44535 10.83792,0.77735 5.21268,0.17696 5.625,0.24049 5.625,0.8667 0,0.37166 0.16072,0.77507 0.35715,0.89647 0.20698,0.12793 0.35714,2.08002 0.35714,4.64286 0,2.56284 -0.15016,4.51494 -0.35714,4.64286 -0.19643,0.1214 -0.35715,0.78857 -0.35715,1.4826 0,0.72109 -0.30611,1.65104 -0.71428,2.16995 -0.39286,0.49943 -0.71429,1.09078 -0.71429,1.31411 0,0.22333 -0.72321,1.19378 -1.60714,2.15656 -0.88393,0.96278 -1.60714,1.95854 -1.60714,2.21279 0,0.25425 -0.91093,1.15052 -2.02429,1.99171 l -2.02429,1.52942 -4.2057,0.11874 -4.20571,0.11874 -1.04098,-2.08302 z"
       id="path3366"
       inkscape:connector-curvature="0" />
    <path
       style="fill:#00aa00;stroke:#d7e3f4;stroke-width:0.35714287"
       d="m 544.37949,654.0905 c -0.2472,-0.39773 -0.68917,-0.72314 -0.98215,-0.72314 -0.39679,0 -0.53376,-0.43276 -0.53692,-1.69643 -0.002,-0.93303 -0.26265,-2.58036 -0.57849,-3.66071 -0.31584,-1.08036 -0.69953,-4.29465 -0.85265,-7.14286 -0.15312,-2.84821 -0.46569,-5.98214 -0.69461,-6.96429 -0.22891,-0.98214 -0.49322,-2.42857 -0.58735,-3.21428 -0.31069,-2.59333 -0.46259,-2.88995 -2.07181,-4.04561 -0.87743,-0.63012 -1.69729,-1.46694 -1.82191,-1.85959 -0.12463,-0.39266 -0.84714,-1.0305 -1.6056,-1.41744 -0.75845,-0.38693 -1.6088,-1.0316 -1.88967,-1.4326 -0.5028,-0.71784 -4.04432,-3.70242 -7.60268,-6.40706 -1.97913,-1.5043 -3.55514,-3.2213 -3.8714,-4.21773 -0.11065,-0.34864 -0.76461,-0.93732 -1.45325,-1.30817 -2.09359,-1.12748 -1.65371,-2.0922 1.96223,-4.30352 2.01592,-1.23283 2.60343,-1.421 4.46428,-1.42987 1.82368,-0.009 2.39033,-0.18183 3.80425,-1.16236 0.91376,-0.63368 2.92269,-1.75064 4.46428,-2.48214 l 2.8029,-1.33 5.20777,-0.0624 c 2.86427,-0.0343 5.59641,-0.19295 6.07143,-0.35254 0.47501,-0.15959 1.12031,-0.25342 1.43399,-0.20852 0.96941,0.13875 1.5622,-0.89856 1.09698,-1.91961 -0.2211,-0.48525 -0.56616,-0.88228 -0.7668,-0.88228 -0.20064,0 -0.3648,-0.76781 -0.3648,-1.70625 0,-2.10917 -0.59041,-2.98737 -2.82667,-4.2045 -2.51244,-1.36744 -2.97756,-2.59182 -2.78315,-7.3264 0.19108,-4.65328 0.42498,-5.54778 1.87481,-7.1698 0.639,-0.71489 1.25898,-1.60592 1.37772,-1.98006 0.23216,-0.73145 2.90257,-1.493 5.92872,-1.69076 0.90109,-0.0589 2.39165,-0.533 3.39286,-1.07919 0.98214,-0.53579 2.91071,-1.5985 4.28571,-2.36159 1.375,-0.76309 2.75119,-1.39252 3.05819,-1.39873 0.307,-0.006 1.0201,-0.49343 1.58467,-1.08272 0.56457,-0.58929 1.22447,-1.07143 1.46645,-1.07143 0.97028,0 2.63623,1.26905 2.63844,2.00984 0.004,1.42102 0.69107,1.57302 7.18908,1.591 3.41332,0.009 6.40692,0.007 6.65246,-0.006 0.24554,-0.0128 0.44643,-0.39829 0.44643,-0.85662 0,-1.27505 0.35806,-1.36369 1.2425,-0.30758 0.94744,1.13133 1.22578,2.49218 1.55198,7.58791 0.17072,2.66696 0.42391,4.04643 0.86623,4.71957 0.51081,0.77737 0.625,1.76325 0.625,5.39594 0,4.197 -0.0597,4.57101 -1.07114,6.70899 -0.58914,1.24532 -1.07128,2.44301 -1.07143,2.66153 -1.6e-4,0.21853 -0.48243,1.00402 -1.07171,1.74554 -0.58929,0.74152 -1.07143,1.56503 -1.07143,1.83003 0,0.265 -0.59063,0.72859 -1.31251,1.03021 -0.74516,0.31135 -2.4567,1.78002 -3.95951,3.39765 -1.45586,1.56709 -2.90948,2.84925 -3.23027,2.84925 -0.60307,0 -2.441,1.91298 -2.74521,2.8573 -0.16326,0.50678 -3.25161,2.1427 -4.04507,2.1427 -0.20343,0 -0.66279,0.36917 -1.0208,0.82038 -0.91678,1.15544 -1.50271,1.44402 -2.03498,1.00228 -0.33984,-0.28204 -0.89522,-0.10563 -2.12721,0.67567 -1.61339,1.02319 -1.81116,1.31907 -1.69524,2.53629 0.0299,0.31367 -0.19154,0.77436 -0.49202,1.02374 -0.30049,0.24938 -0.71048,1.06299 -0.9111,1.80803 -0.20061,0.74503 -0.8693,1.89149 -1.48596,2.54768 -1.39305,1.48234 -3.21265,4.04197 -4.17588,5.8742 -0.40199,0.76467 -1.14018,1.76878 -1.64043,2.23136 -0.50024,0.46259 -0.90953,0.99433 -0.90953,1.18166 0,0.18733 -0.49919,0.96178 -1.10932,1.72101 -0.61013,0.75923 -1.01277,1.53665 -0.89476,1.7276 0.32321,0.52296 -0.57133,2.0163 -1.85465,3.09614 -0.62769,0.52818 -1.14127,1.1871 -1.14127,1.46428 0,0.27718 -0.14326,0.50397 -0.31836,0.50397 -0.47801,0 -1.56694,2.83862 -1.71256,4.46429 -0.0704,0.78571 -0.24489,3.80309 -0.3878,6.70528 -0.21925,4.45232 -0.33007,5.16373 -0.7093,4.55357 z"
       id="path3368"
       inkscape:connector-curvature="0" />
    <path
       style="fill:#ff2a2a;stroke:#d7e3f4"
       d="M 365.05859 70.417969 C 333.56433 73.65492 303.67324 91.396611 286.45703 118.07617 C 272.72811 143.73498 273.36978 176.18321 287.2792 201.63118 C 297.76185 222.09144 309.93116 241.87843 317.13698 263.83746 C 331.93156 304.05146 340.0001 346.26325 348.69892 388.09579 C 356.12824 427.41818 358.47433 467.43617 363.46044 507.08977 C 365.01265 518.09969 367.44236 529.50103 374.20097 538.60171 C 377.70706 543.018 384.39271 544.42516 389.34797 541.68505 C 394.62324 539.12857 397.72735 533.67798 399.25826 528.22227 C 404.06477 513.5382 404.66023 497.97254 406.06588 482.70841 C 408.842 446.89302 409.1826 410.90365 413.22207 375.1847 C 416.54816 343.33168 419.63365 311.37221 426.21497 279.98637 C 429.34266 264.67556 433.52495 249.56788 439.12062 234.96879 C 446.65038 214.91916 456.60253 195.70086 461.75918 174.81785 C 463.98317 166.01093 464.59068 156.81979 463.50619 147.80012 C 461.38989 128.99948 452.39149 111.20914 438.96561 97.944878 C 425.58355 84.561168 407.92604 75.683751 389.3128 72.438547 C 381.33118 70.899228 373.18379 70.245375 365.05859 70.417969 z "
       id="path3370" />
    <ellipse
       style="fill:#800000;stroke:#d7e3f4"
       id="path3375"
       cx="369.21075"
       cy="168.47873"
       rx="48.992397"
       ry="52.527931" />
  </g>
</svg>
